<svg width="31" height="30" viewBox="0 0 31 30" fill="none" xmlns="http://www.w3.org/2000/svg">
<g clip-path="url(#clip0_214_1943)">
<path d="M14.5397 0.191162C15.3032 0.191162 16.0806 0.205868 16.8442 0.220574C16.983 0.220574 17.1357 0.23528 17.2745 0.249986C17.2745 2.48528 17.2745 4.73528 17.2745 6.97057C17.2745 14.4265 17.2745 21.8676 17.2745 29.3235C17.2745 29.7059 17.1635 29.7794 16.8303 29.7647C16.0529 29.7353 15.2616 29.7647 14.4841 29.7647C14.151 29.7647 13.9844 29.5882 13.9844 29.2353C13.9844 23.3088 13.9844 17.3823 13.9844 11.4412C13.9844 7.70587 13.9844 3.97057 13.9844 0.249986C14.0121 0.249986 14.0399 0.23528 14.0677 0.220574C14.2204 0.220574 14.387 0.220574 14.5397 0.220574V0.191162Z" fill="#FECC07" stroke="black" stroke-width="0.25" stroke-miterlimit="10"/>
<path d="M23.8546 24.5441C23.8546 24.897 23.8546 25.25 23.8546 25.6176C23.813 25.647 23.7574 25.6618 23.7435 25.6912C23.7297 25.7794 23.7991 25.7794 23.8546 25.7941C23.8546 26.147 23.8546 26.5 23.8546 26.8676C23.8268 26.8823 23.7852 26.897 23.7574 26.9118C23.7852 26.9265 23.8268 26.9412 23.8546 26.9559C23.8546 27.3088 23.8546 27.6618 23.8546 28.0294C23.813 28.0588 23.7574 28.0735 23.7435 28.1029C23.7297 28.1912 23.7991 28.1912 23.8546 28.2059C23.8546 28.7206 23.8546 29.2353 23.8546 29.7353C22.8967 29.7353 21.9527 29.7353 20.9948 29.7794C20.62 29.7941 20.5506 29.6618 20.5506 29.2941C20.5506 21.3529 20.5506 13.4118 20.5506 5.45587C20.5506 3.82352 20.5506 2.19117 20.5506 0.558813C20.5506 0.382342 20.5228 0.205872 20.8005 0.205872C21.8139 0.205872 22.8412 0.205872 23.8546 0.205872C23.8546 7.35293 23.8546 14.5 23.8546 21.647C23.8546 21.7206 23.8546 21.7794 23.8546 21.8529C23.813 21.8823 23.7574 21.897 23.7435 21.9265C23.7297 22.0147 23.7991 22.0147 23.8546 22.0294C23.8546 22.3823 23.8546 22.7353 23.8546 23.1029C23.813 23.1323 23.7574 23.147 23.7435 23.1765C23.7297 23.2647 23.7991 23.2647 23.8546 23.2794C23.8546 23.6323 23.8546 23.9853 23.8546 24.3529C23.813 24.3823 23.7574 24.397 23.7435 24.4265C23.7297 24.5147 23.7991 24.5147 23.8546 24.5294V24.5441Z" fill="#FECC07" stroke="black" stroke-width="0.25" stroke-miterlimit="10"/>
<path d="M4.09966 0.235276C4.09966 8.5441 4.09966 16.8529 4.09966 25.1617C4.09966 25.4265 4.09966 25.6912 4.09966 25.9559C4.08577 25.9706 4.05801 26 4.04413 26.0147C2.97518 26.0147 1.90623 26.0294 0.837278 26.0441C0.837278 25.9264 0.823395 25.8088 0.809513 25.6912C0.96222 25.6176 0.96222 25.5441 0.809513 25.4559C0.809513 25.1176 0.809513 24.7794 0.809513 24.4412C0.96222 24.3676 0.96222 24.2941 0.809513 24.2059C0.809513 23.8676 0.809513 23.5294 0.809513 23.1912C0.96222 23.1176 0.96222 23.0441 0.809513 22.9559C0.809513 22.6176 0.809513 22.2794 0.809513 21.9412C0.96222 21.8676 0.96222 21.7941 0.809513 21.7059C0.809513 16.9265 0.809513 12.147 0.809513 7.36763C0.809513 5.10292 0.809513 2.83822 0.809513 0.573511C0.809513 0.397041 0.740101 0.176453 1.04551 0.176453C2.05893 0.191159 3.07235 0.191159 4.09966 0.205864V0.235276Z" fill="#FECC07" stroke="black" stroke-width="0.25" stroke-miterlimit="10"/>
<path d="M27.1445 14.9559C27.1445 14.147 27.1445 13.3235 27.1445 12.5147C27.1445 12.2647 27.2001 12.1765 27.4499 12.1765C28.3523 12.1765 29.2408 12.1765 30.1431 12.1765C30.393 12.1765 30.4486 12.2794 30.4486 12.5147C30.4486 14.147 30.4486 15.7647 30.4486 17.397C30.4486 17.647 30.3791 17.7353 30.1431 17.7353C29.2408 17.7353 28.3384 17.7353 27.4499 17.7353C27.2001 17.7353 27.1445 17.6323 27.1584 17.397C27.1584 16.5882 27.1584 15.7647 27.1584 14.9559H27.1445Z" fill="#FECC07" stroke="black" stroke-width="0.25" stroke-miterlimit="10"/>
<path d="M0.823874 26.0294C1.89282 26.0294 2.96177 26.0147 4.03072 26L4.05849 26.0294H4.08625C4.08625 27.1912 4.11402 28.3529 4.11402 29.5147C4.08625 29.5882 4.04461 29.6618 4.01684 29.7353C3.97519 29.7059 3.93355 29.6912 3.8919 29.7353H3.79472C3.64201 29.75 3.47542 29.75 3.32272 29.75C2.58695 29.75 1.85118 29.75 1.10152 29.7353V29.7059L1.07376 29.7353C0.990464 29.7353 0.907169 29.7353 0.837756 29.7353C0.823874 29.7206 0.796109 29.6912 0.782227 29.6765C0.782227 28.4559 0.796109 27.25 0.809991 26.0294H0.823874Z" fill="#EE2024" stroke="black" stroke-width="0.25" stroke-miterlimit="10"/>
<path d="M23.8543 22.0441C23.8543 22.0441 23.7294 22.0294 23.7433 21.9412C23.7433 21.9118 23.8127 21.8971 23.8543 21.8677C23.8543 21.9265 23.8543 21.9853 23.8543 22.0441Z" fill="#FFDF5A" stroke="black" stroke-width="0.25" stroke-miterlimit="10"/>
<path d="M23.8543 23.2941C23.8543 23.2941 23.7294 23.2794 23.7433 23.1912C23.7433 23.1618 23.8127 23.1471 23.8543 23.1177C23.8543 23.1765 23.8543 23.2353 23.8543 23.2941Z" fill="#FFDF5A" stroke="black" stroke-width="0.25" stroke-miterlimit="10"/>
<path d="M23.8543 24.5441C23.8543 24.5441 23.7294 24.5294 23.7433 24.4412C23.7433 24.4118 23.8127 24.3971 23.8543 24.3677C23.8543 24.4265 23.8543 24.4853 23.8543 24.5441Z" fill="#FFDF5A" stroke="black" stroke-width="0.25" stroke-miterlimit="10"/>
<path d="M23.8543 25.7794C23.8543 25.7794 23.7294 25.7647 23.7433 25.6765C23.7433 25.6471 23.8127 25.6324 23.8543 25.603C23.8543 25.6618 23.8543 25.7206 23.8543 25.7794Z" fill="#FFDF5A" stroke="black" stroke-width="0.25" stroke-miterlimit="10"/>
<path d="M23.8543 28.1912C23.8543 28.1912 23.7294 28.1765 23.7433 28.0882C23.7433 28.0588 23.8127 28.0441 23.8543 28.0147C23.8543 28.0735 23.8543 28.1324 23.8543 28.1912Z" fill="#FFDF5A" stroke="black" stroke-width="0.25" stroke-miterlimit="10"/>
<path d="M23.854 26.9412C23.854 26.9412 23.7846 26.9118 23.7568 26.8971C23.7846 26.8824 23.8262 26.8677 23.854 26.853C23.854 26.8824 23.854 26.9118 23.854 26.9412Z" fill="#FFDF5A" stroke="black" stroke-width="0.25" stroke-miterlimit="10"/>
<path d="M4.0858 26.0294H4.05804L4.03027 26C4.04416 25.9853 4.07192 25.9559 4.0858 25.9412C4.0858 25.9706 4.0858 26 4.0858 26.0294Z" fill="#FFDF5A" stroke="black" stroke-width="0.25" stroke-miterlimit="10"/>
<path d="M7.40332 9.2794C7.40332 6.2647 7.40332 3.23529 7.40332 0.220581C8.38898 0.220581 9.36075 0.220581 10.3464 0.220581C10.6102 0.220581 10.7073 0.323522 10.6935 0.588228C10.6935 0.720581 10.6935 0.86764 10.6935 0.999993C10.6935 10.4118 10.6935 19.8235 10.6935 29.25C10.6935 29.6618 10.6241 29.7941 10.2076 29.7794C9.37463 29.7353 8.54168 29.7647 7.70873 29.7794C7.47273 29.7794 7.40332 29.7059 7.40332 29.4412C7.40332 25.2059 7.40332 20.9853 7.40332 16.75C7.4172 16.75 7.44497 16.7206 7.45885 16.7206C7.44497 16.7206 7.4172 16.6912 7.40332 16.6912C7.40332 16.2941 7.40332 15.9118 7.40332 15.5147C7.4172 15.5147 7.44497 15.4853 7.45885 15.4853L7.40332 15.4559C7.40332 13.8529 7.40332 12.2353 7.40332 10.6323C7.4172 10.6323 7.44497 10.6029 7.45885 10.6029L7.40332 10.5735C7.40332 10.1765 7.40332 9.79411 7.40332 9.39705C7.4172 9.39705 7.44497 9.36764 7.45885 9.36764C7.44497 9.36764 7.4172 9.33823 7.40332 9.33823V9.2794Z" fill="#FECC07" stroke="black" stroke-width="0.25" stroke-miterlimit="10"/>
<path d="M4.03022 29.7353C4.03022 29.7353 3.94692 29.7353 3.90527 29.7353C3.94692 29.6912 3.98857 29.7059 4.03022 29.7353Z" fill="#FFDF5A" stroke="black" stroke-width="0.25" stroke-miterlimit="10"/>
<path d="M1.11468 29.7353H1.08691L1.1008 29.7206L1.11468 29.7353Z" fill="#FFDF5A" stroke="black" stroke-width="0.25" stroke-miterlimit="10"/>
</g>
<defs>
<clipPath id="clip0_214_1943">
<rect width="30" height="30" fill="white" transform="translate(0.615234)"/>
</clipPath>
</defs>
</svg>
