<svg width="28" height="30" viewBox="0 0 28 30" fill="none" xmlns="http://www.w3.org/2000/svg">
<g clip-path="url(#clip0_214_1960)">
<path d="M27.2561 26.2458C27.267 28.3055 25.6262 29.9827 23.5928 29.9938C23.4417 29.995 23.2893 29.9864 23.1393 29.9679C21.2522 29.6853 19.8698 28.0229 19.9162 26.0928V3.90079C19.8711 1.96815 21.2571 0.305792 23.1454 0.0256469C25.1654 -0.213773 26.9952 1.24989 27.2317 3.29483C27.2488 3.4454 27.2573 3.59596 27.2561 3.74776V26.2458Z" fill="#F9AB00"/>
<path d="M4.15786 22.5681C6.18514 22.5681 7.82842 24.2317 7.82842 26.2841C7.82842 28.3364 6.18514 30 4.15786 30C2.13058 30 0.487305 28.3364 0.487305 26.2841C0.487305 24.2317 2.13058 22.5681 4.15786 22.5681ZM13.8152 11.3068C11.7781 11.4203 10.1983 13.1493 10.2458 15.214V25.1943C10.2458 27.9032 11.4234 29.5471 13.1484 29.8976C15.1391 30.3061 17.0786 29.0041 17.4821 26.9888C17.5321 26.7419 17.5564 26.4914 17.5552 26.2396V15.0412C17.5589 12.9815 15.9132 11.3092 13.8786 11.3055C13.8578 11.3055 13.8359 11.3055 13.8152 11.3068Z" fill="#E37400"/>
</g>
<defs>
<clipPath id="clip0_214_1960">
<rect width="26.7692" height="30" fill="white" transform="translate(0.487305)"/>
</clipPath>
</defs>
</svg>
