<svg width="30" height="30" viewBox="0 0 30 30" fill="none" xmlns="http://www.w3.org/2000/svg">
<g clip-path="url(#clip0_214_1975)">
<path d="M23.4958 23.8419C23.4569 25.1839 23.0934 26.4364 22.5093 27.5398C21.7434 28.9712 20.4712 29.5378 19.0822 29.836C18.4201 29.9851 17.7581 29.9254 17.096 30C16.5378 29.8211 16.0056 29.5974 15.5383 29.2097C14.6685 28.5238 14.4348 27.4205 14.0714 26.3767C13.8637 25.3032 13.7728 24.1998 13.8377 23.0964C13.8766 22.5 13.5781 22.4254 13.1886 22.4851C11.6309 22.7535 10.0991 22.9473 8.71004 21.7843C8.56725 21.665 8.38551 21.6948 8.21675 21.8141C6.47724 23.0517 4.86755 21.9632 3.80308 20.4125C3.34873 19.7565 2.99823 19.0109 2.59581 18.2952C2.33618 17.5497 1.9727 16.8489 1.85587 16.0586C2.25829 15.9394 2.37512 16.5358 2.75158 16.506C2.97227 16.7445 3.06314 17.0726 3.19295 17.3708C3.72519 18.5934 4.25743 19.8012 5.19209 20.7256C6.17867 21.6948 7.03544 21.7097 7.93116 20.9493C8.54129 20.4274 9.12545 19.8012 9.63172 19.1451C10.2808 18.2952 10.9299 17.6392 11.9684 18.3101C12.0852 18.3847 12.2669 18.2505 12.4227 18.4443C12.1631 18.8469 11.8905 19.2346 11.4232 19.3539C10.9039 19.503 10.3717 19.667 9.85241 19.7863C9.46296 19.8757 9.04756 19.995 9.03458 20.5318C9.03458 21.0537 9.44998 21.2922 9.80048 21.5159C9.86539 21.5606 9.96924 21.5606 10.0471 21.5904C11.3972 22.1272 12.7083 21.9036 13.9675 21.2177C14.331 21.0238 14.5127 21.0984 14.4997 21.6203C14.4868 23.0069 14.4997 24.3936 14.6036 25.7654C14.7204 27.1223 15.8238 28.7922 16.9792 29.0755C17.9788 29.329 18.9134 29.0755 19.8481 28.8071C21.0553 28.4642 21.8732 27.6292 22.2237 26.2276C22.6261 24.662 22.7559 23.0368 22.9117 21.4264C22.9896 20.6511 23.1843 20.502 23.7944 20.5467C25.4301 20.6809 26.9878 20.3529 28.4028 19.2793C28.7923 18.9811 29.0778 18.6083 28.987 18.1312C28.8831 17.5348 28.3898 17.8479 28.0653 17.8181C27.1177 17.7286 26.183 18.0567 25.2354 17.9672C25.0277 17.9523 24.8589 17.9075 24.7421 17.6988C24.5863 17.4304 24.8589 17.3857 24.9368 17.2515C25.7157 15.8201 26.5984 14.4632 27.1306 12.8827C27.4162 12.5994 27.4292 12.1521 27.572 11.7942C28.299 10.0348 28.7533 8.18587 28.9221 6.26242C29.0908 4.29422 28.1172 3.10138 26.7412 2.20675C24.0541 0.462217 21.1852 0.462216 18.2643 1.11828C17.6802 1.25247 17.083 1.2823 16.5248 1.17792C15.1748 0.924443 13.8896 1.02882 12.6174 1.64015C11.9164 2.17693 11.1765 1.78925 10.5145 1.62524C8.56725 1.1481 6.62004 0.84989 4.65985 1.37176C3.25786 1.74452 2.1155 2.53478 1.4145 4.07057C0.47984 6.11331 0.674561 8.2157 1.10295 10.3181C1.40152 11.7793 1.81692 13.2256 2.1804 14.672C1.88183 14.672 1.79096 15.0298 1.54431 15.1342C1.10295 14.4632 1.08997 13.5984 0.778412 12.8678C0.713505 12.3012 0.583691 11.7495 0.401952 11.2276C0.337045 11.0338 0.47984 10.7654 0.259156 10.6163C0.324063 10.2435 0.10338 9.94532 0.10338 9.58747C0.207231 9.3489 -0.0653784 9.2147 -0.0264342 8.99104C0.0514542 7.73856 -0.052397 6.48607 0.10338 5.2485C0.168287 5.1143 0.324063 4.99502 0.233194 4.80118C0.882263 2.83299 2.08953 1.53578 3.82904 0.864801C3.94587 0.820069 4.07569 0.805159 4.2055 0.775338C4.37426 0.730606 4.556 0.670964 4.72476 0.626232C5.37383 0.521859 6.02289 0.432395 6.68495 0.328022H7.46383C7.80135 0.477127 8.13886 0.56659 8.50234 0.477127C8.94371 0.432395 9.35911 0.745517 9.80048 0.626232C9.83943 0.641143 9.87837 0.656053 9.93029 0.670964C10.0731 0.909533 10.2808 0.760427 10.4625 0.775338C10.5923 0.820069 10.7222 0.879712 10.852 0.924443H11.1116C11.3712 1.04373 11.5789 1.35685 11.9035 1.11828C12.0982 1.07355 12.2799 0.998996 12.4227 0.805159C12.5136 0.805159 12.5915 0.775338 12.6824 0.775338C12.7732 0.805159 12.7992 0.745517 12.8251 0.656053L13.8507 0.477127C13.9805 0.432395 14.1103 0.372753 14.2401 0.328022C14.4997 0.328022 14.7594 0.328022 15.019 0.328022C15.7589 0.328022 16.4989 0.357843 17.2258 0.372753C17.9009 0.745517 18.524 0.28329 19.1601 0.193827C20.5621 -0.0298312 21.9511 -0.0447417 23.3531 0.193827C23.8983 0.164006 24.3916 0.417485 24.9108 0.492038C25.0017 0.506948 25.0796 0.521859 25.1704 0.536769C25.2483 0.760427 25.4301 0.626232 25.5599 0.685875C25.8455 0.924443 26.196 0.954264 26.5075 1.08846C26.9359 1.38667 27.3513 1.68488 27.7797 1.98309C27.9614 2.07255 28.0523 2.35585 28.299 2.32603C28.9091 3.01192 29.4673 3.74253 29.7269 4.71172C29.7269 4.86083 29.7399 5.00993 29.7529 5.15904C29.9476 6.29224 29.7269 7.39562 29.5062 8.499C29.1428 10.2883 28.5586 12.003 27.8965 13.673C27.7018 13.9413 27.559 14.2246 27.5071 14.5676C27.0657 15.3877 26.6114 16.2077 26.1311 17.1024C26.6633 17.0726 27.0528 17.0726 27.4682 17.0129C28.7144 16.8638 29.3375 16.8042 29.9216 17.9672C30.0515 18.161 29.9865 18.3847 29.9865 18.5934C29.5192 19.7714 28.6105 20.3529 27.6499 20.8747C27.1696 21.0238 26.7282 21.3071 26.2219 21.3221C25.7287 21.4115 25.2483 21.5159 24.755 21.5904C24.3786 21.6501 23.8593 21.3817 23.6646 21.7246C23.4829 22.0676 23.6127 22.6342 23.6127 23.0964C23.6127 23.1411 23.6127 23.2008 23.6257 23.2455C23.5867 23.4394 23.5348 23.6481 23.4958 23.8419Z" fill="#040503"/>
<path d="M2.20711 14.7018C2.37587 15.3131 2.77829 15.8201 2.75233 16.506C2.38885 16.5358 2.25903 15.9394 1.85661 16.0586C1.64891 15.8052 1.51909 15.5219 1.57102 15.164C1.80469 15.0596 1.90854 14.7018 2.20711 14.7018Z" fill="#2A2A2A"/>
<path d="M13.0722 2.29624C14.9545 1.5209 16.8108 1.83402 18.6671 2.41553C18.7061 2.43044 18.745 2.44535 18.784 2.46026C18.797 2.54972 18.8359 2.59446 18.9138 2.57955C19.2643 2.5199 19.459 2.99704 19.8225 2.92249C20.6793 3.6531 21.6139 4.27935 22.3149 5.21871C22.7693 5.84495 23.1977 6.47119 23.5352 7.20181C23.7559 7.67895 23.7039 7.84296 23.2106 7.84296C22.6524 7.84296 22.1072 7.73859 21.549 7.94734C20.2898 8.43939 19.7835 9.52785 20.186 11.004C20.5754 12.4354 21.1726 13.7475 21.9385 14.9702C22.4318 15.7605 22.7303 16.7147 23.3794 17.3857C23.639 17.6541 23.3015 17.7436 23.1977 17.7585C22.5096 17.9225 22.3539 18.5636 22.3149 19.1899C22.1851 21.2475 21.8216 23.2455 21.5231 25.2734C21.1855 27.5994 20.147 28.0318 18.4075 28.3002C16.6291 28.5686 16.0579 27.5994 15.6425 26.4215C15.4737 25.9294 15.4088 25.3778 15.3958 24.841C15.3699 23.7972 15.3958 22.7386 15.3699 21.6949C15.3569 20.7853 15.3179 19.8609 15.266 18.9513C15.2401 18.3996 14.6299 17.7286 14.0068 17.7137C13.3837 17.6839 13.4616 17.3708 13.6433 16.9384C13.9549 16.1929 14.3443 15.4921 14.604 14.7167C15.0973 13.2406 14.9675 11.7048 14.6819 10.2137C14.2535 8.00698 13.0202 7.30618 10.9951 8.00698C10.8394 8.06662 10.6836 8.171 10.5148 8.20082C10.2422 8.24555 9.95663 8.58849 9.73595 8.33501C9.54123 8.09644 9.56719 7.61931 9.697 7.33601C10.2033 6.24754 10.2422 4.95032 11.0471 3.98114C11.6442 3.25052 12.3452 2.77338 13.0592 2.28133L13.0722 2.29624Z" fill="#2A688E"/>
<path d="M11.0864 2.68388C9.20406 4.62225 8.55499 7.12722 8.67182 9.82602C8.73673 11.2723 8.59393 12.6739 8.60691 14.1053C8.6199 15.1938 8.86654 16.1034 9.5935 16.7892C9.98294 17.162 10.0219 17.4453 9.60648 17.8479C8.86654 18.5785 8.29536 19.503 7.49051 20.1441C6.72461 20.7405 5.98467 20.5765 5.40051 19.7266C4.29709 18.161 3.63504 16.3419 3.07684 14.4781C2.53162 12.6292 1.97342 10.7505 1.79168 8.7972C1.60994 6.85883 1.54504 4.87573 2.96001 3.35485C3.82976 2.41549 4.90722 2.07254 6.04958 1.99799C7.73716 1.87871 9.41176 2.05763 11.0993 2.68388H11.0864Z" fill="#2A688E"/>
<path d="M25.5603 2.46022C26.3262 2.96718 27.0791 3.48905 27.6762 4.24949C27.6503 4.35386 27.7022 4.38368 27.7671 4.39859C28.1695 5.56161 28.0657 6.72464 27.7931 7.90257C27.7541 8.06659 27.6892 8.24551 27.858 8.3648V8.37971C27.7541 8.46917 27.6632 8.57354 27.6632 8.73756C27.6113 9.09541 27.3777 9.39362 27.4036 9.7813C27.4036 9.82603 27.4036 9.88567 27.4036 9.9304C27.3517 10.0795 27.1959 10.1839 27.2738 10.3777C27.2608 10.4224 27.2478 10.4672 27.2478 10.5119C27.1829 10.5417 27.131 10.5716 27.144 10.6759C27.0272 10.8549 26.9623 11.0487 26.9882 11.2723C26.9233 11.3022 26.8714 11.332 26.8844 11.4364C26.8714 11.4811 26.8584 11.5258 26.8584 11.5855C26.7935 11.6004 26.7416 11.6451 26.7545 11.7346C26.6896 11.8837 26.5728 12.003 26.5988 12.1819C25.8978 13.4344 25.4564 14.8509 24.6645 16.0288C24.5347 16.2226 24.4309 16.4165 24.1713 16.5656C24.1323 16.0586 24.4179 15.7604 24.5217 15.3877C24.7944 14.3737 24.6256 13.3598 24.4698 12.3906C24.34 11.5557 24.366 10.7505 24.5347 9.99004C25.0021 7.84293 24.1712 6.23259 23.0289 4.72662C22.1721 3.59342 21.1206 2.77334 19.9523 2.11728C19.9004 1.98309 19.8095 1.89362 19.6797 1.87871C19.6797 1.83398 19.6797 1.80416 19.6797 1.75943C20.7052 1.34193 21.7697 1.52086 22.8082 1.62523C23.5222 1.69979 24.2102 1.95327 24.9112 2.11728C24.9501 2.13219 24.9891 2.16201 25.028 2.16201C25.041 2.25148 25.0799 2.29621 25.1708 2.25148C25.2876 2.34094 25.3915 2.47513 25.5603 2.44531V2.46022Z" fill="#2A688E"/>
<path d="M9.61888 11.2873C9.61888 11.0636 9.6708 10.8101 9.61888 10.6163C9.33329 9.70673 9.78764 9.36379 10.4237 9.14013C11.3194 8.84192 12.2022 8.45425 13.1498 8.91648C13.4484 9.06558 13.6171 9.30415 13.708 9.662C14.2143 11.6004 14.3441 13.494 13.3835 15.328C13.1239 15.8201 12.8902 16.3717 12.7734 16.9234C12.6435 17.49 12.319 17.4602 11.9945 17.4006C10.1901 17.0129 9.07366 15.1193 9.48906 13.2853C9.63186 12.6441 9.59292 11.9582 9.63186 11.2873C9.63186 11.2873 9.61888 11.2873 9.6059 11.2873H9.61888ZM12.3709 9.18487C12.1892 9.21469 11.8517 9.05067 11.7868 9.45326C11.7478 9.76638 12.0204 9.93039 12.2411 10.0646C12.332 10.1242 12.4358 10.1839 12.5267 10.1988C12.9162 10.2882 13.1888 9.97512 13.2666 9.662C13.3445 9.31906 12.9551 9.28924 12.7344 9.18487C12.6435 9.14013 12.5267 9.18487 12.358 9.18487H12.3709Z" fill="#2A688E"/>
<path d="M22.9379 8.57355C23.1067 8.57355 23.2884 8.57355 23.4572 8.57355C23.7947 8.57355 23.9115 8.75247 23.8336 9.14015C23.5221 10.6461 23.5091 12.1521 23.8596 13.658C23.8985 13.837 23.8985 14.0606 23.8596 14.2545C23.7947 14.7763 23.8336 15.4771 23.3923 15.671C23.1326 15.7753 22.9639 15.0596 22.7692 14.7167C22.159 13.658 21.5489 12.5994 21.1724 11.3916C21.0946 11.1382 21.0167 10.8847 21.0037 10.6163C20.8869 9.05068 21.3412 8.58846 22.9379 8.58846V8.57355ZM22.3927 9.02086C22.0682 9.05068 21.6268 8.9314 21.5749 9.36381C21.5359 9.66202 21.9124 9.7813 22.2239 9.7813C22.5874 9.7813 22.9249 9.69184 22.9249 9.24452C22.9249 8.81212 22.5485 9.12524 22.3927 9.02086Z" fill="#2A688E"/>
<path d="M11.502 21.0388C11.2813 21.1133 10.9049 20.8151 10.5024 20.83C10.3726 20.83 10.2428 20.7405 10.2558 20.5914C10.2558 20.4871 10.3856 20.3976 10.5024 20.3976C11.6188 20.3976 12.4756 19.8012 13.2026 18.832C13.592 18.3101 14.0204 18.325 14.3319 18.832C14.6565 19.339 14.3968 19.6372 14.0334 20.0248C13.3583 20.7405 12.5665 20.9344 11.515 21.0537L11.502 21.0388Z" fill="#2A688E"/>
<path d="M27.5336 18.7724C27.209 19.339 26.6379 19.4284 26.1705 19.5924C25.3397 19.8906 24.47 19.831 23.6132 19.8161C23.3536 19.8161 23.1718 19.6223 23.1329 19.3986C23.068 19.1004 23.1978 18.8171 23.4315 18.6382C23.6651 18.4592 23.9507 18.3847 24.2363 18.504C25.3008 18.9662 26.4042 18.6829 27.5595 18.7724H27.5336Z" fill="#2A688E"/>
</g>
<defs>
<clipPath id="clip0_214_1975">
<rect width="30" height="30" fill="white"/>
</clipPath>
</defs>
</svg>
