<svg width="31" height="30" viewBox="0 0 31 30" fill="none" xmlns="http://www.w3.org/2000/svg">
<g clip-path="url(#clip0_214_1964)">
<path d="M0.612047 29.8828L14.9776 15.1605C15.0693 15.0688 15.0846 14.9261 15.0082 14.8191C14.1368 13.6011 12.5213 13.3871 11.9251 12.5667C10.1568 10.141 9.70836 8.76507 8.94906 8.8517C8.8981 8.85679 8.84714 8.88737 8.81147 8.92304L3.62377 14.2432C0.632431 17.3008 0.204369 24.0377 0.12793 29.684C0.12793 29.8369 0.250233 29.9643 0.408208 29.9643C0.484648 29.9643 0.555992 29.9337 0.612047 29.8777V29.8828Z" fill="#017CEE"/>
<path d="M30.0105 29.5159L15.2883 15.1503C15.1965 15.0586 15.0538 15.0433 14.9468 15.1197C13.7289 15.9963 13.5149 17.6066 12.6944 18.2028C10.2687 19.9711 8.89281 20.4196 8.97945 21.1789C8.98964 21.2298 9.01512 21.2808 9.05079 21.3164L14.371 26.5041C17.4286 29.4904 24.1654 29.9185 29.8118 29.9949C29.9647 29.9949 30.0921 29.8675 30.0921 29.7146C30.0921 29.6382 30.0615 29.5668 30.0054 29.5159H30.0105Z" fill="#00AD46"/>
<path d="M14.3714 26.5093C12.7 24.8786 11.9254 21.6528 15.1307 15.0026C9.92266 17.3314 8.0983 20.389 8.99519 21.2655L14.3714 26.5093Z" fill="#04D659"/>
<path d="M29.6443 0.122307L15.2787 14.8446C15.187 14.9363 15.1717 15.079 15.2482 15.186C16.1196 16.4039 17.735 16.618 18.3312 17.4384C20.0995 19.8641 20.548 21.24 21.3073 21.1534C21.3582 21.1483 21.4092 21.1177 21.4449 21.082L26.6326 15.7619C29.6188 12.7043 30.0469 5.96739 30.1233 0.32105C30.1233 0.163075 29.9959 0.0407715 29.843 0.0407715C29.7666 0.0407715 29.6952 0.0713473 29.6392 0.127403L29.6443 0.122307Z" fill="#00C7D4"/>
<path d="M26.6425 15.7567C25.0117 17.4282 21.786 18.2028 15.1357 14.9974C17.4646 20.2055 20.5222 22.0299 21.3987 21.133L26.6475 15.7567H26.6425Z" fill="#11E1EE"/>
<path d="M0.244835 0.484118L14.9671 14.8497C15.0588 14.9414 15.2015 14.9567 15.3085 14.8802C16.5265 14.0037 16.7405 12.3934 17.561 11.7972C19.9866 10.0289 21.3626 9.58043 21.2759 8.82113C21.2657 8.77017 21.2402 8.71921 21.2046 8.68354L15.8844 3.49584C12.8268 0.504502 6.08992 0.0764396 0.443578 0C0.290698 0 0.163299 0.122303 0.158203 0.280279C0.158203 0.356718 0.188779 0.433158 0.244835 0.484118Z" fill="#E43921"/>
<path fill-rule="evenodd" clip-rule="evenodd" d="M15.8902 3.49072C17.5616 5.12143 18.3362 8.34719 15.1309 14.9974C20.3389 12.6686 22.1633 9.61099 21.2664 8.73448L15.8902 3.49072Z" fill="#FF7557"/>
<path d="M3.61838 14.2433C5.24909 12.5718 8.47484 11.7972 15.1251 15.0026C12.7962 9.79449 9.73864 7.97013 8.86213 8.86702L3.61328 14.2433H3.61838Z" fill="#0CB6FF"/>
<path d="M15.1304 15.6395C15.485 15.6395 15.7725 15.3521 15.7725 14.9974C15.7725 14.6428 15.485 14.3553 15.1304 14.3553C14.7758 14.3553 14.4883 14.6428 14.4883 14.9974C14.4883 15.3521 14.7758 15.6395 15.1304 15.6395Z" fill="#4A4848"/>
</g>
<defs>
<clipPath id="clip0_214_1964">
<rect width="30" height="30" fill="white" transform="translate(0.12793)"/>
</clipPath>
</defs>
</svg>
