<svg width="30" height="30" viewBox="0 0 30 30" fill="none" xmlns="http://www.w3.org/2000/svg">
<g clip-path="url(#clip0_214_1634)">
<path d="M14.8712 0.00848389C7.2744 0.00848389 7.74873 3.31613 7.74873 3.31613L7.75716 6.74295H15.0066V7.77178H4.87778C4.87778 7.77178 0.0166016 7.21825 0.0166016 14.9141C0.0166016 22.6102 4.25956 22.3373 4.25956 22.3373H6.79175V18.766C6.79175 18.766 6.65523 14.506 10.967 14.506H18.1572C18.1572 14.506 22.1968 14.5715 22.1968 10.5861V3.99648C22.1968 3.99648 22.8104 0.00848389 14.8712 0.00848389ZM10.8738 2.31295C11.0451 2.3128 11.2148 2.34656 11.3731 2.41231C11.5314 2.47806 11.6752 2.57451 11.7964 2.69613C11.9175 2.81775 12.0135 2.96216 12.079 3.12109C12.1445 3.28003 12.1782 3.45037 12.178 3.62237C12.1782 3.79436 12.1445 3.9647 12.079 4.12364C12.0135 4.28257 11.9175 4.42698 11.7964 4.54861C11.6752 4.67023 11.5314 4.76667 11.3731 4.83242C11.2148 4.89817 11.0451 4.93193 10.8738 4.93178C10.7025 4.93193 10.5329 4.89817 10.3746 4.83242C10.2163 4.76667 10.0724 4.67023 9.95129 4.54861C9.83015 4.42698 9.73409 4.28257 9.66861 4.12364C9.60312 3.9647 9.56949 3.79436 9.56965 3.62237C9.56949 3.45037 9.60312 3.28003 9.66861 3.12109C9.73409 2.96216 9.83015 2.81775 9.95129 2.69613C10.0724 2.57451 10.2163 2.47806 10.3746 2.41231C10.5329 2.34656 10.7025 2.3128 10.8738 2.31295Z" fill="url(#paint0_linear_214_1634)"/>
<path d="M15.0877 29.8972C22.6845 29.8972 22.2102 26.5895 22.2102 26.5895L22.2017 23.1628H14.9521V22.134H25.081C25.081 22.134 29.9422 22.6875 29.9422 14.9914C29.9422 7.29539 25.6992 7.56834 25.6992 7.56834H23.167V11.1395C23.167 11.1395 23.3035 15.3995 18.9918 15.3995H11.8016C11.8016 15.3995 7.76197 15.334 7.76197 19.3195V25.9093C7.76197 25.9093 7.14855 29.8972 15.0876 29.8972H15.0877ZM19.0851 27.5929C18.9138 27.5931 18.7441 27.5593 18.5858 27.4936C18.4275 27.4278 18.2837 27.3314 18.1625 27.2098C18.0414 27.0881 17.9454 26.9437 17.8799 26.7848C17.8144 26.6259 17.7808 26.4555 17.7809 26.2835C17.7807 26.1115 17.8144 25.9412 17.8798 25.7822C17.9453 25.6233 18.0414 25.4788 18.1625 25.3572C18.2836 25.2356 18.4275 25.1391 18.5858 25.0734C18.7441 25.0076 18.9138 24.9738 19.0851 24.974C19.2564 24.9738 19.426 25.0076 19.5843 25.0733C19.7426 25.1391 19.8865 25.2355 20.0076 25.3572C20.1287 25.4788 20.2248 25.6232 20.2903 25.7821C20.3558 25.9411 20.3894 26.1114 20.3893 26.2834C20.3894 26.4554 20.3558 26.6257 20.2903 26.7847C20.2248 26.9436 20.1287 27.088 20.0076 27.2096C19.8865 27.3313 19.7426 27.4277 19.5843 27.4934C19.426 27.5592 19.2564 27.5931 19.0851 27.5929Z" fill="url(#paint1_linear_214_1634)"/>
</g>
<defs>
<linearGradient id="paint0_linear_214_1634" x1="287.593" y1="268.84" x2="1776.46" y2="1736.95" gradientUnits="userSpaceOnUse">
<stop stop-color="#387EB8"/>
<stop offset="1" stop-color="#366994"/>
</linearGradient>
<linearGradient id="paint1_linear_214_1634" x1="432.224" y1="467.097" x2="2030.8" y2="1972.23" gradientUnits="userSpaceOnUse">
<stop stop-color="#FFE052"/>
<stop offset="1" stop-color="#FFC331"/>
</linearGradient>
<clipPath id="clip0_214_1634">
<rect width="30" height="30" fill="white"/>
</clipPath>
</defs>
</svg>
