<svg width="31" height="30" viewBox="0 0 31 30" fill="none" xmlns="http://www.w3.org/2000/svg">
<g clip-path="url(#clip0_214_1638)">
<path d="M22.7369 12.153C21.3217 8.36933 17.0527 6.45015 13.2131 7.83479L13.0985 7.89913L13.1639 8.03117C13.8158 9.76684 12.9116 11.6925 11.1458 12.3334C10.3465 12.6232 9.51106 12.5845 8.7706 12.314C8.23325 13.8468 8.20706 15.5696 8.82297 17.2119C10.2415 20.9891 14.5072 22.9244 18.35 21.5301C22.1899 20.1325 24.1555 15.9334 22.7369 12.1529" fill="#FA930D"/>
<path d="M14.5305 11.348C12.663 12.0338 11.7065 14.0754 12.3944 15.8949C13.0857 17.7336 15.1595 18.6738 17.0302 17.9944C18.8976 17.3182 19.8542 15.2765 19.163 13.4379C18.4782 11.6153 16.3978 10.675 14.5305 11.348ZM30.8721 5.61603C30.8721 5.28424 30.7443 5.00416 30.5182 4.78192C30.289 4.55969 29.9875 4.44051 29.6664 4.44051C29.3454 4.44376 29.0439 4.56618 28.8178 4.78842L26.9668 6.61092L26.472 6.00229L28.2511 4.22152C28.4772 4.01228 28.5983 3.70634 28.5983 3.38754C28.5983 3.06874 28.4706 2.78216 28.2445 2.55343C28.0172 2.33493 27.7106 2.21443 27.3927 2.21852C27.0717 2.21852 26.7702 2.34407 26.5441 2.55668L24.788 4.30198L24.159 3.81577L25.9741 2.0124C26.2002 1.78703 26.3213 1.49072 26.3213 1.17516C26.3213 0.843494 26.1936 0.563294 25.9675 0.334685C25.7387 0.118943 25.4332 -0.00119363 25.1158 8.94199e-06C24.7982 -0.00083286 24.4932 0.12183 24.2672 0.341299L22.0688 2.52782C18.7402 0.850108 14.7532 0.502324 10.9725 1.87097L9.93055 2.31208L2.96228 1.30733L6.40237 4.61777L5.59315 5.42277L2.15637 2.10608L3.27024 8.78144C1.70759 11.9855 1.40943 15.7982 2.76249 19.3982C2.96559 19.9554 3.22117 20.4836 3.48973 20.9794L1.2193 23.2304C0.996499 23.459 0.87207 23.752 0.87207 24.0708C0.87207 24.3896 0.996499 24.6795 1.2259 24.9113C1.45519 25.1238 1.75665 25.2461 2.07452 25.2461C2.39238 25.2461 2.69703 25.1206 2.92313 24.9048L4.81024 23.0404L5.3279 23.6425L3.49316 25.4554C3.26705 25.6711 3.14263 25.9738 3.14593 26.2958C3.14593 26.6083 3.27366 26.9012 3.49976 27.1267C3.72904 27.3457 4.02721 27.468 4.34838 27.468C4.66587 27.462 4.96917 27.3378 5.19699 27.1202L7.0611 25.2751L7.69022 25.7645L5.76701 27.6741C5.54079 27.8971 5.41465 28.1998 5.41648 28.5146C5.41979 28.8399 5.54422 29.12 5.7735 29.3518C6.00278 29.5643 6.30094 29.6866 6.62211 29.6866C6.94328 29.6866 7.24462 29.5611 7.47072 29.3486L9.83292 27.001C13.0895 28.5307 16.939 28.8108 20.5853 27.4745C21.5879 27.1171 22.5149 26.634 23.37 26.0802L24.2414 26.6888C24.4085 26.8176 24.4739 27.3167 24.1824 27.6839L23.8615 28.0961C23.6615 28.3343 23.5764 28.6531 23.6125 28.9687C23.6518 29.2842 23.8123 29.5612 24.0613 29.7481C24.3169 29.9477 24.6313 30.0314 24.9458 29.9895C25.2669 29.9446 25.552 29.7899 25.7486 29.542L26.1613 29.03C27.1901 27.7548 26.6658 25.9258 25.5421 25.0725L25.0965 24.773C26.0662 23.9004 26.8951 22.9247 27.5733 21.8492L27.9369 22.065C28.1039 22.197 28.1695 22.6863 27.8779 23.0696L27.5569 23.4722C27.357 23.7169 27.2719 24.026 27.3079 24.3448C27.3473 24.6603 27.5077 24.9469 27.76 25.1242C28.0123 25.3238 28.3235 25.4043 28.6446 25.3657C28.9595 25.3248 29.2462 25.1655 29.444 24.9213L29.8567 24.4125C30.8855 23.1244 30.3581 21.3148 29.2375 20.4486L28.5528 19.9751C29.8764 16.8967 30.0729 13.3351 28.8017 9.95383L28.2547 8.69798L30.5218 6.444C30.7511 6.22814 30.8723 5.93194 30.8723 5.61639M7.2412 17.7854C5.49821 13.1548 7.91277 8.01528 12.6272 6.30546C17.3417 4.59552 22.577 6.9593 24.32 11.6059C26.0597 16.2366 23.6483 21.3856 18.9307 23.0988C14.2195 24.7829 8.98418 22.4193 7.2412 17.7855" fill="#136BA2"/>
</g>
<defs>
<clipPath id="clip0_214_1638">
<rect width="30" height="30" fill="white" transform="translate(0.87207)"/>
</clipPath>
</defs>
</svg>
