<svg width="65" height="65" viewBox="0 0 65 65" fill="none" xmlns="http://www.w3.org/2000/svg">
<g clip-path="url(#clip0_229_9149)">
<path d="M47.375 26.3314C44.3088 18.1335 35.0592 13.9753 26.7402 16.9753L26.4918 17.1147L26.6336 17.4008C28.046 21.1614 26.087 25.3338 22.261 26.7223C20.5291 27.3502 18.7191 27.2663 17.1148 26.6803C15.9505 30.0014 15.8938 33.7341 17.2283 37.2923C20.3017 45.4764 29.5441 49.6696 37.8703 46.6484C46.1898 43.6205 50.4488 34.5223 47.375 26.3312" fill="#FA930D"/>
<path d="M29.5933 24.5873C25.547 26.0732 23.4745 30.4967 24.9651 34.439C26.4628 38.4229 30.9561 40.4599 35.0093 38.9878C39.0554 37.5227 41.1279 33.0992 39.6304 29.1155C38.1467 25.1665 33.6391 23.1292 29.5933 24.5873ZM65 12.1681C65 11.4492 64.7233 10.8423 64.2334 10.3608C63.7366 9.87932 63.0834 9.62111 62.3878 9.62111C61.6922 9.62814 61.039 9.89339 60.5491 10.3749L56.5386 14.3237L55.4666 13.005L59.3213 9.14663C59.8111 8.69326 60.0736 8.03041 60.0736 7.33967C60.0736 6.64893 59.7968 6.02802 59.3069 5.53244C58.8144 5.05901 58.1501 4.79793 57.4614 4.80679C56.7658 4.80679 56.1126 5.07881 55.6227 5.53947L51.8179 9.32095L50.4551 8.26751L54.3877 4.36019C54.8776 3.87191 55.14 3.22989 55.14 2.54619C55.14 1.82757 54.8632 1.22047 54.3733 0.725151C53.8776 0.257711 53.2157 -0.0025862 52.5281 1.93743e-05C51.8399 -0.00180453 51.179 0.263964 50.6894 0.739482L45.9263 5.47694C38.7142 1.8419 30.0758 1.08837 21.8842 4.05377L19.6267 5.0095L4.52879 2.83254L11.9823 10.0052L10.229 11.7493L2.78265 4.56317L5.19602 19.0265C1.8103 25.9685 1.16427 34.2295 4.0959 42.0295C4.53595 43.2367 5.08972 44.3811 5.6716 45.4553L0.752325 50.3325C0.269596 50.8278 0 51.4628 0 52.1535C0 52.8442 0.269596 53.4722 0.76664 53.9745C1.26342 54.4349 1.9166 54.6999 2.6053 54.6999C3.29401 54.6999 3.95408 54.4279 4.44396 53.9605L8.53271 49.9208L9.6543 51.2254L5.67902 55.1533C5.18913 55.6207 4.91954 56.2766 4.92669 56.9743C4.92669 57.6513 5.20345 58.286 5.69333 58.7745C6.19011 59.249 6.83613 59.514 7.53199 59.514C8.2199 59.501 8.87706 59.2318 9.37066 58.7604L13.4096 54.7627L14.7727 55.8232L10.6057 59.9606C10.1156 60.4437 9.84225 61.0995 9.84623 61.7816C9.85338 62.4864 10.123 63.0933 10.6198 63.5956C11.1165 64.056 11.7626 64.321 12.4584 64.321C13.1543 64.321 13.8072 64.049 14.2971 63.5886L19.4152 58.5022C26.4711 61.8165 34.8116 62.4234 42.7121 59.528C44.8842 58.7537 46.8928 57.707 48.7455 56.5071L50.6335 57.8258C50.9956 58.1049 51.1374 59.1862 50.5057 59.9817L49.8104 60.8749C49.3772 61.391 49.1927 62.0818 49.2709 62.7655C49.356 63.4492 49.7038 64.0492 50.2433 64.4542C50.797 64.8867 51.4783 65.068 52.1599 64.9774C52.8554 64.8799 53.4731 64.5448 53.8991 64.0076L54.7933 62.8984C57.0224 60.1354 55.8865 56.1726 53.4516 54.3237L52.4862 53.6749C54.5873 51.7843 56.3833 49.6701 57.8526 47.34L58.6405 47.8074C59.0023 48.0935 59.1444 49.1537 58.5127 49.9841L57.8171 50.8564C57.384 51.3867 57.1997 52.0563 57.2777 52.747C57.363 53.4307 57.7106 54.0517 58.2572 54.4357C58.8038 54.8682 59.4782 55.0426 60.1738 54.9589C60.8561 54.8703 61.4772 54.5253 61.9059 53.9962L62.8 52.8937C65.0292 50.1029 63.8864 46.182 61.4584 44.3052L59.975 43.2794C62.8427 36.6094 63.2684 28.8927 60.5142 21.5666L59.3289 18.8456L64.2411 13.962C64.7378 13.4943 65.0005 12.8525 65.0005 12.1688M13.7998 38.5349C10.0233 28.5022 15.2549 17.3664 25.4696 13.6618C35.6843 9.95697 47.0275 15.0785 50.8039 25.1462C54.5732 35.1792 49.3486 46.3355 39.127 50.0474C28.9194 53.6963 17.5762 48.5753 13.7998 38.5352" fill="#136BA2"/>
</g>
<defs>
<clipPath id="clip0_229_9149">
<rect width="65" height="65" fill="white"/>
</clipPath>
</defs>
</svg>
