<svg width="51" height="65" viewBox="0 0 51 65" fill="none" xmlns="http://www.w3.org/2000/svg">
<g clip-path="url(#clip0_229_9164)">
<path d="M3.86361 20.5757C5.99742 20.5757 7.72721 18.8041 7.72721 16.6189C7.72721 14.4336 5.99742 12.6621 3.86361 12.6621C1.72979 12.6621 0 14.4336 0 16.6189C0 18.8041 1.72979 20.5757 3.86361 20.5757Z" fill="#509EE3"/>
<path d="M3.86361 31.6548C5.99742 31.6548 7.72721 29.8832 7.72721 27.698C7.72721 25.5127 5.99742 23.7412 3.86361 23.7412C1.72979 23.7412 0 25.5127 0 27.698C0 29.8832 1.72979 31.6548 3.86361 31.6548Z" fill="#509EE3"/>
<path opacity="0.2" d="M14.682 20.5757C16.8158 20.5757 18.5456 18.8041 18.5456 16.6189C18.5456 14.4336 16.8158 12.6621 14.682 12.6621C12.5482 12.6621 10.8184 14.4336 10.8184 16.6189C10.8184 18.8041 12.5482 20.5757 14.682 20.5757Z" fill="#509EE3"/>
<path d="M14.682 31.7624C16.8158 31.7624 18.5456 29.9909 18.5456 27.8056C18.5456 25.6204 16.8158 23.8489 14.682 23.8489C12.5482 23.8489 10.8184 25.6204 10.8184 27.8056C10.8184 29.9909 12.5482 31.7624 14.682 31.7624Z" fill="#509EE3"/>
<path opacity="0.2" d="M25.5003 20.5757C27.6341 20.5757 29.3639 18.8041 29.3639 16.6189C29.3639 14.4336 27.6341 12.6621 25.5003 12.6621C23.3665 12.6621 21.6367 14.4336 21.6367 16.6189C21.6367 18.8041 23.3665 20.5757 25.5003 20.5757Z" fill="#509EE3"/>
<path opacity="0.2" d="M25.5003 7.91354C27.6341 7.91354 29.3639 6.14204 29.3639 3.95677C29.3639 1.77151 27.6341 0 25.5003 0C23.3665 0 21.6367 1.77151 21.6367 3.95677C21.6367 6.14204 23.3665 7.91354 25.5003 7.91354Z" fill="#509EE3"/>
<path opacity="0.2" d="M25.5003 31.7627C27.6341 31.7627 29.3639 29.9912 29.3639 27.8059C29.3639 25.6206 27.6341 23.8491 25.5003 23.8491C23.3665 23.8491 21.6367 25.6206 21.6367 27.8059C21.6367 29.9912 23.3665 31.7627 25.5003 31.7627Z" fill="#509EE3"/>
<path opacity="0.2" d="M36.3187 20.5757C38.4525 20.5757 40.1823 18.8041 40.1823 16.6189C40.1823 14.4336 38.4525 12.6621 36.3187 12.6621C34.1849 12.6621 32.4551 14.4336 32.4551 16.6189C32.4551 18.8041 34.1849 20.5757 36.3187 20.5757Z" fill="#509EE3"/>
<path d="M47.137 20.5757C49.2709 20.5757 51.0006 18.8041 51.0006 16.6189C51.0006 14.4336 49.2709 12.6621 47.137 12.6621C45.0032 12.6621 43.2734 14.4336 43.2734 16.6189C43.2734 18.8041 45.0032 20.5757 47.137 20.5757Z" fill="#509EE3"/>
<path d="M36.3187 31.7627C38.4525 31.7627 40.1823 29.9912 40.1823 27.8059C40.1823 25.6206 38.4525 23.8491 36.3187 23.8491C34.1849 23.8491 32.4551 25.6206 32.4551 27.8059C32.4551 29.9912 34.1849 31.7627 36.3187 31.7627Z" fill="#509EE3"/>
<path d="M47.137 31.7627C49.2709 31.7627 51.0006 29.9912 51.0006 27.8059C51.0006 25.6206 49.2709 23.8491 47.137 23.8491C45.0032 23.8491 43.2734 25.6206 43.2734 27.8059C43.2734 29.9912 45.0032 31.7627 47.137 31.7627Z" fill="#509EE3"/>
<path d="M3.86361 42.7339C5.99742 42.7339 7.72721 40.9623 7.72721 38.7771C7.72721 36.5918 5.99742 34.8203 3.86361 34.8203C1.72979 34.8203 0 36.5918 0 38.7771C0 40.9623 1.72979 42.7339 3.86361 42.7339Z" fill="#509EE3"/>
<path opacity="0.2" d="M14.682 42.8415C16.8158 42.8415 18.5456 41.07 18.5456 38.8847C18.5456 36.6995 16.8158 34.928 14.682 34.928C12.5482 34.928 10.8184 36.6995 10.8184 38.8847C10.8184 41.07 12.5482 42.8415 14.682 42.8415Z" fill="#509EE3"/>
<path d="M25.5003 42.8413C27.6341 42.8413 29.3639 41.0698 29.3639 38.8845C29.3639 36.6992 27.6341 34.9277 25.5003 34.9277C23.3665 34.9277 21.6367 36.6992 21.6367 38.8845C21.6367 41.0698 23.3665 42.8413 25.5003 42.8413Z" fill="#509EE3"/>
<path opacity="0.2" d="M36.3187 42.8413C38.4525 42.8413 40.1823 41.0698 40.1823 38.8845C40.1823 36.6992 38.4525 34.9277 36.3187 34.9277C34.1849 34.9277 32.4551 36.6992 32.4551 38.8845C32.4551 41.0698 34.1849 42.8413 36.3187 42.8413Z" fill="#509EE3"/>
<path d="M47.137 42.8413C49.2709 42.8413 51.0006 41.0698 51.0006 38.8845C51.0006 36.6992 49.2709 34.9277 47.137 34.9277C45.0032 34.9277 43.2734 36.6992 43.2734 38.8845C43.2734 41.0698 45.0032 42.8413 47.137 42.8413Z" fill="#509EE3"/>
<path d="M3.86361 53.813C5.99742 53.813 7.72721 52.0414 7.72721 49.8562C7.72721 47.6709 5.99742 45.8994 3.86361 45.8994C1.72979 45.8994 0 47.6709 0 49.8562C0 52.0414 1.72979 53.813 3.86361 53.813Z" fill="#509EE3"/>
<path opacity="0.2" d="M14.682 53.9206C16.8158 53.9206 18.5456 52.1491 18.5456 49.9639C18.5456 47.7786 16.8158 46.0071 14.682 46.0071C12.5482 46.0071 10.8184 47.7786 10.8184 49.9639C10.8184 52.1491 12.5482 53.9206 14.682 53.9206Z" fill="#509EE3"/>
<path opacity="0.2" d="M25.5003 53.9209C27.6341 53.9209 29.3639 52.1494 29.3639 49.9641C29.3639 47.7788 27.6341 46.0073 25.5003 46.0073C23.3665 46.0073 21.6367 47.7788 21.6367 49.9641C21.6367 52.1494 23.3665 53.9209 25.5003 53.9209Z" fill="#509EE3"/>
<path opacity="0.2" d="M25.5003 65C27.6341 65 29.3639 63.2285 29.3639 61.0432C29.3639 58.8579 27.6341 57.0864 25.5003 57.0864C23.3665 57.0864 21.6367 58.8579 21.6367 61.0432C21.6367 63.2285 23.3665 65 25.5003 65Z" fill="#509EE3"/>
<path opacity="0.2" d="M36.3187 53.9209C38.4525 53.9209 40.1823 52.1494 40.1823 49.9641C40.1823 47.7788 38.4525 46.0073 36.3187 46.0073C34.1849 46.0073 32.4551 47.7788 32.4551 49.9641C32.4551 52.1494 34.1849 53.9209 36.3187 53.9209Z" fill="#509EE3"/>
<path d="M47.137 53.9209C49.2709 53.9209 51.0006 52.1494 51.0006 49.9641C51.0006 47.7788 49.2709 46.0073 47.137 46.0073C45.0032 46.0073 43.2734 47.7788 43.2734 49.9641C43.2734 52.1494 45.0032 53.9209 47.137 53.9209Z" fill="#509EE3"/>
</g>
<defs>
<clipPath id="clip0_229_9164">
<rect width="51" height="65" fill="white"/>
</clipPath>
</defs>
</svg>
