<svg width="65" height="65" viewBox="0 0 65 65" fill="none" xmlns="http://www.w3.org/2000/svg">
<g clip-path="url(#clip0_229_9212)">
<path d="M35.8481 64.9693C31.2197 65.0371 27.3181 63.3468 24.0896 60.1208C23.6434 59.6758 23.2314 59.6728 22.6911 59.7583C13.0595 61.2777 4.11157 54.2497 3.48618 44.6781C3.36379 42.8021 3.51305 40.9437 4.07276 39.1399C4.23097 38.633 4.14142 38.2926 3.80708 37.8814C-2.10947 30.6073 -1.01392 20.3018 6.28625 14.5308C8.13554 13.0689 10.2236 12.0506 12.5312 11.4994C13.0192 11.383 13.2715 11.159 13.4551 10.6889C17.8716 -0.618716 32.1495 -3.62209 40.9109 4.91499C41.3154 5.30846 41.6856 5.40425 42.2289 5.31583C54.1053 3.39267 64.0532 14.2022 60.9845 25.7043C60.8084 26.3675 60.8935 26.8214 61.3353 27.3593C68.8489 36.5404 64.2413 50.4269 52.6858 53.4274C52.0231 53.5998 51.7351 53.9196 51.4813 54.5223C48.9365 60.5703 44.3453 64.0394 37.7855 64.9575C37.1511 65.0459 36.4944 64.9693 35.8481 64.9693ZM28.0927 57.9663C28.3494 58.1653 28.4808 58.2758 28.6196 58.3731C32.5003 61.0581 36.684 61.6004 40.9841 59.664C45.4439 57.6554 48.0036 54.0802 48.2021 49.2244C48.4096 44.1505 48.2723 39.0618 48.2529 33.9791C48.2529 33.705 48.032 33.3174 47.7962 33.1744C46.3125 32.277 44.7961 31.4325 43.2856 30.5778C43.1304 30.4894 42.9468 30.4481 42.6826 30.3494C42.6632 30.7163 42.6378 30.9786 42.6378 31.2395C42.6378 36.813 42.6199 42.388 42.6557 47.9614C42.6632 49.1566 42.2139 49.9598 41.1706 50.5374C38.8512 51.8225 36.5541 53.1488 34.2496 54.4589C32.2495 55.5966 30.251 56.7358 28.0942 57.9663H28.0927ZM35.6407 22.6494C35.878 22.8159 36.0272 22.9382 36.1929 23.034C41.199 25.9092 46.2006 28.7932 51.2201 31.6462C52.2067 32.2077 52.6664 32.9431 52.6575 34.0867C52.6231 38.7509 52.6425 43.4166 52.647 48.0808C52.647 48.3549 52.6828 48.629 52.7067 48.9768C53.0545 48.8383 53.2918 48.7646 53.5112 48.6556C57.8442 46.5054 60.3576 43.0629 60.6054 38.2705C60.8532 33.4854 58.7964 29.7201 54.6426 27.2281C50.6067 24.8068 46.4573 22.5727 42.402 20.1839C41.5035 19.6548 40.8438 19.5531 39.9408 20.1529C38.587 21.0534 37.1273 21.799 35.6392 22.6508L35.6407 22.6494ZM57.0068 23.6043C57.065 23.2035 57.1143 22.9677 57.1322 22.7304C57.48 18.0942 55.8008 14.3112 51.9694 11.635C48.1096 8.93816 43.814 8.47689 39.6079 10.6093C34.8809 13.0055 30.3525 15.7834 25.7509 18.4199C25.5553 18.5319 25.4076 18.89 25.4046 19.1361C25.3747 20.8795 25.3867 22.6228 25.3927 24.3662C25.3927 24.5209 25.4449 24.6742 25.4867 24.907C25.7762 24.7523 25.9927 24.6433 26.2031 24.5239C31.1794 21.6944 36.1586 18.8693 41.1288 16.0295C42.0035 15.53 42.8453 15.4563 43.7334 15.9706C46.3708 17.4988 49.0126 19.0197 51.6545 20.539C53.3888 21.5367 55.1262 22.5285 57.0068 23.6058V23.6043ZM36.9989 7.05036C36.7123 6.89268 36.5526 6.82194 36.4138 6.72615C32.4301 3.97035 28.1494 3.45898 23.7777 5.52804C19.3925 7.60447 16.9253 11.1944 16.782 16.0369C16.6342 21.018 16.7581 26.0064 16.7342 30.9919C16.7313 31.5224 16.9447 31.7862 17.3731 32.0235C18.8253 32.8281 20.2627 33.6608 21.7105 34.4757C21.8672 34.5641 22.0523 34.6054 22.3374 34.7115C22.3374 34.3048 22.3374 34.0159 22.3374 33.7256C22.3448 28.1757 22.3642 22.6258 22.3523 17.0759C22.3493 15.9618 22.7344 15.163 23.7434 14.5986C27.4852 12.503 31.2062 10.3721 34.9332 8.25142C35.5496 7.90068 36.1601 7.53963 36.9989 7.05036ZM29.3793 42.3688C29.0465 42.161 28.8271 42.0136 28.5987 41.8825C23.7314 39.109 18.8716 36.3222 13.9879 33.5768C12.9207 32.977 12.4327 32.2018 12.4446 30.9669C12.4894 26.3498 12.4625 21.7313 12.461 17.1142C12.461 16.8327 12.4356 16.5498 12.4222 16.2683C12.2595 16.258 12.1834 16.2373 12.1147 16.2535C11.9953 16.2815 11.8774 16.3258 11.764 16.3744C8.93108 17.5931 6.80417 19.587 5.5116 22.3296C2.819 28.0401 4.93696 34.6997 10.4311 37.902C14.7148 40.3985 19.0373 42.8271 23.3598 45.2572C23.615 45.4002 24.0896 45.3943 24.3538 45.2557C25.6031 44.597 26.8151 43.869 28.039 43.1631C28.4584 42.9214 28.8733 42.6724 29.3823 42.3703L29.3793 42.3688ZM39.6318 40.0978C39.1945 40.3292 38.9124 40.4677 38.6407 40.6225C33.7287 43.4166 28.8151 46.2063 23.912 49.0151C22.9762 49.5516 22.118 49.5398 21.1791 48.9989C17.2313 46.7206 13.264 44.4732 9.30124 42.2199C8.90571 41.9945 8.49376 41.797 7.99673 41.5391C7.94151 41.9282 7.88628 42.189 7.86986 42.4513C7.56687 47.1819 9.33557 50.9913 13.3267 53.613C17.3193 56.2362 21.6284 56.4705 25.8524 54.2438C30.3674 51.8638 34.7466 49.2318 39.1751 46.6926C39.3766 46.5762 39.6094 46.2991 39.6124 46.0943C39.6452 44.1593 39.6318 42.2244 39.6318 40.0993V40.0978ZM25.3897 32.5113C25.3897 33.6652 25.3553 34.822 25.4121 35.973C25.427 36.2707 25.6524 36.6759 25.9061 36.8277C27.9091 38.017 29.948 39.1473 31.9615 40.3204C32.3854 40.5679 32.7137 40.5355 33.1242 40.2968C35.1153 39.134 37.1317 38.0155 39.1124 36.8351C39.3661 36.6848 39.6034 36.2766 39.6079 35.9848C39.6482 33.677 39.6184 31.3677 39.6393 29.0584C39.6437 28.6016 39.4736 28.3525 39.0795 28.1344C37.0631 27.0144 35.0571 25.8782 33.0615 24.7228C32.6704 24.4959 32.3689 24.4826 31.9719 24.714C29.9569 25.8841 27.9166 27.013 25.9121 28.2007C25.6568 28.3525 25.4255 28.7534 25.4106 29.0511C25.3524 30.202 25.3867 31.3589 25.3882 32.5128L25.3897 32.5113Z" fill="black"/>
</g>
<defs>
<clipPath id="clip0_229_9212">
<rect width="65" height="65" fill="white"/>
</clipPath>
</defs>
</svg>
