<svg width="65" height="65" viewBox="0 0 65 65" fill="none" xmlns="http://www.w3.org/2000/svg">
<g clip-path="url(#clip0_229_9216)">
<path d="M0 32.5C0 23.5286 3.17382 15.8691 9.52154 9.52147C15.8691 3.17383 23.5286 0 32.5 0C41.4713 0 49.1308 3.17383 55.4785 9.52147C61.8261 15.8691 65 23.5286 65 32.5C65 41.4713 61.8262 49.1308 55.4785 55.4785C49.1309 61.8261 41.4714 65 32.5 65C23.5286 65 15.8691 61.8262 9.52154 55.4785C3.17382 49.1309 0 41.4712 0 32.5ZM3.55468 32.5C3.55468 40.4558 6.38997 47.2688 12.0605 52.9395C17.7311 58.61 24.5442 61.4453 32.5 61.4453C40.4558 61.4453 47.2689 58.61 52.9395 52.9395C58.61 47.2689 61.4453 40.4558 61.4453 32.5C61.4453 24.5442 58.6101 17.7311 52.9395 12.0605C47.2689 6.38997 40.4557 3.55468 32.5 3.55468C24.5442 3.55468 17.7312 6.38997 12.0605 12.0605C6.38997 17.7311 3.55468 24.5442 3.55468 32.5ZM12.6954 39.4824C12.5261 39.3131 12.5261 39.1438 12.6954 38.9746C13.0338 38.636 13.4571 38.5091 13.9648 38.5937C14.4726 38.6783 14.7689 38.763 14.8535 38.8476C15.4459 39.1015 16.1019 39.6728 16.8212 40.5615C17.5406 41.4502 18.1119 42.0638 18.5351 42.4023C20.5664 44.095 22.6399 44.222 24.7558 42.7832C24.925 42.1907 25.2001 41.6829 25.5809 41.2597C25.9617 40.8365 26.3215 40.5403 26.6601 40.371C26.9987 40.2017 27.5911 39.9478 28.4375 39.6093C25.6444 39.3554 23.3805 38.8687 21.6455 38.1493C19.9104 37.4299 18.5351 36.5201 17.5194 35.4198C16.1653 33.8964 15.3401 31.9075 15.0438 29.453C14.7475 26.9986 14.938 24.7558 15.6152 22.7245C16.123 21.455 16.8424 20.3125 17.7733 19.2968C17.0962 17.1809 17.2232 14.7688 18.1542 12.0605C20.8625 12.2297 23.3169 13.1607 25.5174 14.8534C29.7492 13.7532 34.1502 13.7109 38.7205 14.7265C39.3129 14.3033 40.2228 13.7744 41.4499 13.1395C42.6771 12.5048 44.2218 12.145 46.0837 12.0604C46.4223 12.9914 46.6551 14.0917 46.782 15.3612C46.909 16.6307 46.8455 17.8156 46.5916 18.9159C48.5382 20.9471 49.5538 23.6554 49.6384 27.0409C49.6384 29.7492 49.173 31.992 48.242 33.7694C47.311 35.5467 45.6606 37.0278 43.2908 38.2127C41.6828 38.9744 39.5669 39.4399 36.9432 39.6091C38.1282 40.2016 38.9956 40.8152 39.5458 41.45C40.096 42.0848 40.4556 43.0792 40.625 44.4334V48.4325L40.7518 52.3045C41.0058 52.7277 41.302 53.0874 41.6406 53.3837C41.9791 53.6799 42.2753 53.8915 42.5293 54.0185C42.7831 54.1454 42.8678 54.3359 42.7831 54.5898C42.6985 54.8437 42.3599 54.9706 41.7675 54.9706C40.3287 54.9706 39.1862 54.4628 38.3398 53.4471C38.0859 53.024 37.9589 52.5162 37.9589 51.9237V45.83C37.9589 45.1529 37.7897 44.6662 37.4511 44.37C37.1126 44.0737 36.7741 43.8833 36.4355 43.7987V51.7967C36.4355 53.2355 36.6048 54.1665 36.9433 54.5897C37.2819 55.0128 37.4935 55.4361 37.5782 55.8592C37.6628 55.9438 37.5993 56.0073 37.3877 56.0496C37.1762 56.0918 36.8164 56.0285 36.3086 55.8592C35.2083 55.6053 34.4466 55.034 34.0234 54.1453C33.6002 53.2566 33.3886 52.3044 33.3886 51.2888V43.4179H31.7382V51.289C31.7382 52.3046 31.5266 53.278 31.1034 54.2089C30.511 55.3939 29.4107 56.0286 27.8027 56.1132C27.5488 56.0286 27.4218 55.944 27.4218 55.8594C27.5065 55.7747 27.7604 55.3516 28.1836 54.5899C28.2682 54.4206 28.374 54.082 28.501 53.5742C28.628 53.0664 28.6914 52.474 28.6914 51.7969V43.7988C28.3529 43.8834 28.0355 44.0738 27.7393 44.3701C27.443 44.6664 27.2949 45.153 27.2949 45.8301V51.9238C27.2949 52.5162 27.1679 53.0241 26.914 53.4473C26.1523 54.4629 25.0097 54.9708 23.4864 54.9708C22.8939 54.9708 22.5554 54.8438 22.4707 54.5899C22.386 54.4206 22.4072 54.2725 22.5343 54.1455C22.6613 54.0186 22.8517 53.8705 23.1056 53.7012C23.3595 53.5319 23.5288 53.4049 23.6134 53.3203C23.9519 53.0664 24.2058 52.7279 24.3751 52.3047C24.629 51.9662 24.6925 51.0775 24.5655 49.6387C24.4386 48.1999 24.4174 47.2689 24.502 46.8457C22.3014 47.6074 20.0586 47.2265 17.7734 45.7031C17.0963 45.0261 16.4193 44.0527 15.7422 42.7832C15.2344 41.8522 14.2187 40.7519 12.6954 39.4824Z" fill="black"/>
</g>
<defs>
<clipPath id="clip0_229_9216">
<rect width="65" height="65" fill="white"/>
</clipPath>
</defs>
</svg>
