<svg width="65" height="65" viewBox="0 0 65 65" fill="none" xmlns="http://www.w3.org/2000/svg">
<g clip-path="url(#clip0_229_9137)">
<path d="M50.9088 51.6577C50.8244 54.5652 50.0369 57.2789 48.7712 59.6696C47.1118 62.771 44.3554 63.9986 41.3459 64.6447C39.9114 64.9678 38.477 64.8386 37.0425 65.0001C35.8331 64.6124 34.6799 64.1278 33.6674 63.2879C31.7829 61.8018 31.2766 59.4111 30.4891 57.1497C30.0391 54.8237 29.8422 52.433 29.9828 50.0424C30.0672 48.7501 29.4203 48.5886 28.5765 48.7178C25.2013 49.2993 21.8824 49.7193 18.8729 47.1994C18.5635 46.941 18.1697 47.0056 17.8041 47.264C14.0352 49.9454 10.5475 47.5871 8.24114 44.2272C7.25672 42.8058 6.49731 41.1905 5.62539 39.6398C5.06286 38.0245 4.27532 36.5061 4.02219 34.7938C4.8941 34.5354 5.14724 35.8276 5.9629 35.763C6.44105 36.2799 6.63794 36.9907 6.9192 37.6368C8.07238 40.2859 9.22556 42.9027 11.2507 44.9057C13.3883 47.0056 15.2446 47.0379 17.1853 45.3903C18.5073 44.2596 19.7729 42.9027 20.8699 41.4812C22.2762 39.6398 23.6825 38.2183 25.9326 39.6721C26.1858 39.8336 26.5795 39.5429 26.917 39.9628C26.3545 40.8351 25.7639 41.6751 24.7513 41.9335C23.6263 42.2566 22.4731 42.6119 21.348 42.8704C20.5042 43.0642 19.6042 43.3227 19.5761 44.4857C19.5761 45.6164 20.4761 46.1333 21.2355 46.6179C21.3761 46.7148 21.6012 46.7148 21.7699 46.7794C24.6951 47.9425 27.5358 47.4579 30.2641 45.9718C31.0516 45.5518 31.4454 45.7133 31.4173 46.844C31.3891 49.8485 31.4173 52.853 31.6423 55.8252C31.8954 58.765 34.2861 62.3833 36.7894 62.9971C38.9551 63.5463 40.9802 62.9971 43.0053 62.4156C45.6211 61.6726 47.393 59.8634 48.1524 56.8267C49.0243 53.4345 49.3056 49.9131 49.6431 46.4241C49.8119 44.7441 50.2338 44.4211 51.5557 44.518C55.0996 44.8088 58.4748 44.098 61.5406 41.772C62.3844 41.1259 63.0031 40.3182 62.8063 39.2844C62.5812 37.9922 61.5125 38.6706 60.8093 38.606C58.7561 38.4121 56.731 39.1229 54.6777 38.929C54.2277 38.8967 53.8621 38.7998 53.6089 38.3475C53.2714 37.766 53.8621 37.6691 54.0308 37.3783C55.7184 34.277 57.631 31.3371 58.7842 27.9126C59.403 27.2988 59.4311 26.3296 59.7405 25.5543C61.3156 21.7422 62.3 17.7362 62.6656 13.5687C63.0313 9.30429 60.9218 6.71979 57.9404 4.78142C52.1182 1.0016 45.9023 1.0016 39.5739 2.42307C38.3082 2.71383 37.0144 2.77844 35.805 2.5523C32.8798 2.00309 30.0953 2.22924 27.3389 3.55379C25.8201 4.71681 24.2169 3.87685 22.7825 3.52148C18.5635 2.48768 14.3446 1.84156 10.0975 2.97228C7.05983 3.77993 4.58471 5.49216 3.06589 8.81969C1.04079 13.2456 1.46269 17.8008 2.39086 22.356C3.03776 25.522 3.93781 28.6557 4.72534 31.7894C4.07844 31.7894 3.88155 32.5647 3.34715 32.7909C2.39086 31.3371 2.36273 29.4633 1.6877 27.8803C1.54707 26.6527 1.2658 25.4574 0.872035 24.3267C0.731403 23.9067 1.04079 23.3252 0.562645 23.0021C0.703277 22.1944 0.225129 21.5483 0.225129 20.773C0.45014 20.2561 -0.140514 19.9653 -0.0561348 19.4807C0.112623 16.767 -0.112387 14.0533 0.225129 11.3719C0.365761 11.0811 0.703277 10.8227 0.506392 10.4027C1.91271 6.13828 4.52846 3.32764 8.29739 1.87387C8.55053 1.77695 8.83179 1.74464 9.11306 1.68003C9.4787 1.58311 9.87247 1.45389 10.2381 1.35697C11.6444 1.13083 13.0507 0.936989 14.4852 0.710846H16.1728C16.9041 1.03391 17.6353 1.22774 18.4229 1.03391C19.3792 0.936989 20.2792 1.61542 21.2355 1.35697C21.3199 1.38928 21.4043 1.42158 21.5168 1.45389C21.8262 1.97079 22.2762 1.64772 22.67 1.68003C22.9512 1.77695 23.2325 1.90617 23.5137 2.00309H24.0763C24.6388 2.26154 25.0888 2.93997 25.792 2.42307C26.2139 2.32615 26.6076 2.16462 26.917 1.74464C27.1139 1.74464 27.2827 1.68003 27.4796 1.68003C27.6765 1.74464 27.7327 1.61542 27.789 1.42158L30.0109 1.03391C30.2922 0.936989 30.5735 0.807764 30.8547 0.710846C31.4173 0.710846 31.9798 0.710846 32.5423 0.710846C34.1455 0.710846 35.7487 0.775458 37.3238 0.807764C38.7864 1.61542 40.1364 0.613927 41.5146 0.42009C44.5523 -0.0645021 47.5618 -0.0968082 50.5994 0.42009C51.7807 0.355478 52.8495 0.904683 53.9746 1.06621C54.1715 1.09852 54.3402 1.13083 54.5371 1.16313C54.7059 1.64772 55.0996 1.35697 55.3809 1.48619C55.9997 2.00309 56.7591 2.0677 57.4341 2.35846C58.3623 3.00458 59.2623 3.65071 60.1905 4.29683C60.5843 4.49067 60.7812 5.10448 61.3156 5.03987C62.6375 6.52596 63.8469 8.10896 64.4095 10.2089C64.4095 10.5319 64.4376 10.855 64.4657 11.178C64.8876 13.6333 64.4095 16.024 63.9313 18.4146C63.1438 22.2914 61.8781 26.0066 60.4436 29.6249C60.0218 30.2064 59.7124 30.8202 59.5999 31.5632C58.6436 33.3401 57.6591 35.1169 56.6185 37.0553C57.7716 36.9907 58.6154 36.9907 59.5155 36.8614C62.2156 36.5384 63.5657 36.4092 64.8314 38.929C65.1126 39.349 64.972 39.8336 64.972 40.2859C63.9594 42.8381 61.9906 44.098 59.9092 45.2287C58.8686 45.5518 57.9123 46.1656 56.8153 46.1979C55.7465 46.3918 54.7059 46.6179 53.6371 46.7794C52.8214 46.9087 51.6964 46.3271 51.2745 47.0702C50.8807 47.8132 51.162 49.0409 51.162 50.0424C51.162 50.1393 51.162 50.2685 51.1901 50.3654C51.1057 50.7854 50.9932 51.2377 50.9088 51.6577Z" fill="#040503"/>
<path d="M4.78191 31.854C5.14755 33.1786 6.01946 34.277 5.96321 35.763C5.17567 35.8277 4.89441 34.5354 4.02249 34.7939C3.57247 34.2447 3.29121 33.6308 3.40371 32.8555C3.90999 32.6294 4.135 31.854 4.78191 31.854Z" fill="#2A2A2A"/>
<path d="M28.3235 4.97498C32.4018 3.29506 36.4239 3.97349 40.446 5.23343C40.5304 5.26574 40.6147 5.29805 40.6991 5.33035C40.7272 5.52419 40.8116 5.62111 40.9804 5.5888C41.7398 5.45958 42.1617 6.49337 42.9492 6.33184C44.8056 7.91484 46.8307 9.2717 48.3495 11.307C49.3339 12.6638 50.2621 14.0207 50.9934 15.6037C51.4715 16.6375 51.359 16.9929 50.2902 16.9929C49.0808 16.9929 47.8995 16.7667 46.69 17.219C43.9618 18.2851 42.8648 20.6435 43.7368 23.8418C44.5805 26.9432 45.8744 29.7861 47.5338 32.4352C48.6026 34.1474 49.2495 36.215 50.6558 37.6688C51.2184 38.2503 50.4871 38.4442 50.2621 38.4765C48.7714 38.8318 48.4339 40.221 48.3495 41.5779C48.0682 46.0361 47.2807 50.3651 46.6338 54.7588C45.9025 59.7985 43.6524 60.7354 39.8834 61.3169C36.0301 61.8984 34.7926 59.7985 33.8925 57.2464C33.5269 56.1802 33.3863 54.9849 33.3581 53.8219C33.3019 51.5605 33.3581 49.2667 33.3019 47.0053C33.2738 45.0346 33.1894 43.0316 33.0769 41.061C33.0206 39.8656 31.6987 38.4119 30.3486 38.3796C28.9985 38.3149 29.1673 37.6365 29.5611 36.6996C30.2361 35.0843 31.0799 33.5659 31.6424 31.886C32.7112 28.6877 32.43 25.3602 31.8112 22.1296C30.883 17.3482 28.211 15.8299 23.8233 17.3482C23.4858 17.4775 23.1483 17.7036 22.7826 17.7682C22.192 17.8651 21.5732 18.6082 21.095 18.059C20.6731 17.5421 20.7294 16.5083 21.0107 15.8945C22.1076 13.5361 22.192 10.7255 23.9358 8.62558C25.2296 7.04258 26.7484 6.00878 28.2954 4.94268L28.3235 4.97498Z" fill="#2A688E"/>
<path d="M24.019 5.81512C19.9407 10.0149 18.5343 15.4424 18.7875 21.2898C18.9281 24.4235 18.6187 27.4602 18.6469 30.5616C18.675 32.92 19.2094 34.8907 20.7845 36.3767C21.6282 37.1844 21.7126 37.7982 20.8126 38.6705C19.2094 40.2535 17.9718 42.2565 16.228 43.6456C14.5685 44.9379 12.9653 44.5825 11.6996 42.7411C9.3089 39.3489 7.87446 35.4076 6.66502 31.3693C5.48372 27.3633 4.27428 23.2928 3.88051 19.0606C3.48675 14.8608 3.34611 10.5641 6.41189 7.26889C8.29635 5.23361 10.6308 4.49056 13.106 4.32903C16.7624 4.07058 20.3907 4.45826 24.0471 5.81512H24.019Z" fill="#2A688E"/>
<path d="M55.3799 5.33074C57.0394 6.42915 58.6707 7.55986 59.9645 9.20748C59.9083 9.43362 60.0208 9.49823 60.1614 9.53054C61.0333 12.0504 60.8083 14.5703 60.2176 17.1225C60.1333 17.4779 59.9926 17.8655 60.3583 18.124V18.1563C60.1333 18.3501 59.9364 18.5763 59.9364 18.9316C59.8239 19.707 59.3176 20.3531 59.3739 21.1931C59.3739 21.29 59.3739 21.4192 59.3739 21.5161C59.2613 21.8392 58.9238 22.0653 59.0926 22.4853C59.0645 22.5822 59.0363 22.6791 59.0363 22.7761C58.8957 22.8407 58.7832 22.9053 58.8113 23.1314C58.5582 23.5191 58.4176 23.9391 58.4738 24.4237C58.3332 24.4883 58.2207 24.5529 58.2488 24.779C58.2207 24.876 58.1925 24.9729 58.1925 25.1021C58.0519 25.1344 57.9394 25.2313 57.9675 25.4252C57.8269 25.7482 57.5738 26.0067 57.63 26.3944C56.1112 29.1081 55.1549 32.1772 53.4392 34.7293C53.1579 35.1493 52.9329 35.5693 52.3704 35.8924C52.286 34.794 52.9048 34.1478 53.1298 33.3402C53.7205 31.1434 53.3548 28.9465 53.0173 26.8466C52.736 25.0375 52.7923 23.293 53.1579 21.6453C54.1705 16.9933 52.3704 13.5042 49.8953 10.2413C48.0389 7.78601 45.7607 6.00917 43.2293 4.5877C43.1168 4.29694 42.9199 4.1031 42.6387 4.0708C42.6387 3.97388 42.6387 3.90927 42.6387 3.81235C44.8607 2.90778 47.167 3.29545 49.4171 3.52159C50.9641 3.68312 52.4548 4.23233 53.9736 4.5877C54.058 4.62 54.1424 4.68462 54.2267 4.68462C54.2549 4.87845 54.3392 4.97537 54.5361 4.87845C54.7893 5.07229 55.0143 5.36304 55.3799 5.29843V5.33074Z" fill="#2A688E"/>
<path d="M20.8422 24.4557C20.8422 23.9711 20.9547 23.4219 20.8422 23.0019C20.2234 21.0312 21.2078 20.2882 22.586 19.8036C24.5268 19.1575 26.4393 18.3175 28.4926 19.319C29.1395 19.6421 29.5051 20.159 29.702 20.9343C30.7989 25.1341 31.0802 29.237 28.9988 33.2107C28.4363 34.2768 27.93 35.4721 27.6769 36.6674C27.3956 37.8951 26.6925 37.8304 25.9893 37.7012C22.0798 36.8613 19.6609 32.7584 20.5609 28.7847C20.8703 27.3956 20.786 25.9095 20.8703 24.4557C20.8703 24.4557 20.8422 24.4557 20.8141 24.4557H20.8422ZM26.805 19.9005C26.4112 19.9651 25.6799 19.6098 25.5393 20.482C25.4549 21.1605 26.0456 21.5158 26.5237 21.8066C26.7206 21.9358 26.9456 22.065 27.1425 22.0973C27.9863 22.2912 28.577 21.6127 28.7457 20.9343C28.9145 20.1913 28.0707 20.1267 27.5925 19.9005C27.3956 19.8036 27.1425 19.9005 26.7769 19.9005H26.805Z" fill="#2A688E"/>
<path d="M49.6991 18.5759C50.0648 18.5759 50.4585 18.5759 50.8242 18.5759C51.5555 18.5759 51.8086 18.9636 51.6399 19.8036C50.9648 23.0665 50.9367 26.3294 51.6961 29.5923C51.7805 29.98 51.7805 30.4646 51.6961 30.8846C51.5555 32.0153 51.6399 33.5337 50.6836 33.9537C50.121 34.1798 49.7554 32.6291 49.3335 31.8861C48.0116 29.5923 46.6896 27.2986 45.8739 24.6818C45.7052 24.1326 45.5364 23.5834 45.5083 23.0019C45.2552 19.6097 46.2396 18.6082 49.6991 18.6082V18.5759ZM48.5178 19.5451C47.8147 19.6097 46.8584 19.3513 46.7459 20.2882C46.6615 20.9343 47.4772 21.1927 48.1522 21.1927C48.9397 21.1927 49.671 20.9989 49.671 20.0297C49.671 19.0928 48.8553 19.7713 48.5178 19.5451Z" fill="#2A688E"/>
<path d="M24.9208 45.5841C24.4427 45.7456 23.627 45.0995 22.7551 45.1318C22.4738 45.1318 22.1926 44.938 22.2207 44.6149C22.2207 44.3887 22.502 44.1949 22.7551 44.1949C25.174 44.1949 27.0303 42.9027 28.6054 40.8028C29.4492 39.672 30.3773 39.7044 31.0524 40.8028C31.7555 41.9012 31.193 42.5473 30.4055 43.3873C28.9429 44.938 27.2272 45.3579 24.949 45.6164L24.9208 45.5841Z" fill="#2A688E"/>
<path d="M59.6569 40.6735C58.9537 41.9011 57.7162 42.0949 56.7036 42.4503C54.9035 43.0964 53.0191 42.9672 51.1627 42.9349C50.6002 42.9349 50.2064 42.5149 50.1221 42.0303C49.9814 41.3842 50.2627 40.7704 50.769 40.3827C51.2752 39.995 51.894 39.8335 52.5128 40.0919C54.8192 41.0934 57.2099 40.4796 59.7132 40.6735H59.6569Z" fill="#2A688E"/>
</g>
<defs>
<clipPath id="clip0_229_9137">
<rect width="65" height="65" fill="white"/>
</clipPath>
</defs>
</svg>
