<svg width="65" height="65" viewBox="0 0 65 65" fill="none" xmlns="http://www.w3.org/2000/svg">
<g clip-path="url(#clip0_229_9195)">
<path d="M1.04892 64.7461L32.1743 32.8479C32.373 32.6491 32.4062 32.34 32.2405 32.1081C30.3525 29.4692 26.8524 29.0055 25.5606 27.2279C21.7292 21.9722 20.7576 18.9911 19.1125 19.1788C19.002 19.1898 18.8916 19.2561 18.8143 19.3333L7.57432 30.8604C1.09309 37.4852 0.165619 52.0818 0 64.3155C0 64.6468 0.264991 64.9228 0.60727 64.9228C0.772889 64.9228 0.927467 64.8565 1.04892 64.7351V64.7461Z" fill="#017CEE"/>
<path d="M64.7456 63.951L32.8474 32.8256C32.6486 32.6269 32.3395 32.5937 32.1076 32.7594C29.4688 34.6585 29.005 38.1475 27.2274 39.4393C21.9717 43.2707 18.9906 44.2423 19.1783 45.8874C19.2004 45.9979 19.2556 46.1083 19.3329 46.1856L30.86 57.4256C37.4847 63.8958 52.0813 64.8232 64.315 64.9889C64.6463 64.9889 64.9223 64.7128 64.9223 64.3816C64.9223 64.216 64.8561 64.0614 64.7346 63.951H64.7456Z" fill="#00AD46"/>
<path d="M30.8609 57.4366C27.2394 53.9034 25.5611 46.9142 32.5061 32.5054C21.2219 37.5512 17.2691 44.176 19.2124 46.0751L30.8609 57.4366Z" fill="#04D659"/>
<path d="M63.9519 0.265039L32.8266 32.1633C32.6278 32.362 32.5947 32.6712 32.7603 32.9031C34.6484 35.5419 38.1485 36.0057 39.4403 37.7833C43.2716 43.0389 44.2433 46.0201 45.8884 45.8324C45.9988 45.8213 46.1092 45.7551 46.1865 45.6778L57.4266 34.1507C63.8967 27.526 64.8242 12.9294 64.9898 0.695649C64.9898 0.35337 64.7138 0.0883789 64.3826 0.0883789C64.2169 0.0883789 64.0624 0.154627 63.9409 0.276081L63.9519 0.265039Z" fill="#00C7D4"/>
<path d="M57.4468 34.1398C53.9136 37.7613 46.9245 39.4396 32.5156 32.4946C37.5615 43.7788 44.1863 47.7316 46.0854 45.7883L57.4579 34.1398H57.4468Z" fill="#11E1EE"/>
<path d="M0.254108 1.04892L32.1524 32.1743C32.3511 32.373 32.6603 32.4062 32.8921 32.2405C35.531 30.3414 35.9947 26.8524 37.7724 25.5606C43.028 21.7292 46.0092 20.7576 45.8215 19.1125C45.7994 19.002 45.7442 18.8916 45.6669 18.8143L34.1398 7.57432C27.515 1.09309 12.9185 0.165619 0.684718 0C0.353479 0 0.0774475 0.264991 0.0664062 0.60727C0.0664062 0.772889 0.132654 0.938509 0.254108 1.04892Z" fill="#E43921"/>
<path fill-rule="evenodd" clip-rule="evenodd" d="M34.151 7.56348C37.7725 11.0967 39.4508 18.0858 32.5059 32.4947C43.79 27.4488 47.7428 20.824 45.7996 18.925L34.151 7.56348Z" fill="#FF7557"/>
<path d="M7.56378 30.8605C11.097 27.2389 18.0861 25.5606 32.495 32.5056C27.4491 21.2214 20.8243 17.2686 18.9252 19.2119L7.55273 30.8605H7.56378Z" fill="#0CB6FF"/>
<path d="M32.5064 33.8859C33.2748 33.8859 33.8976 33.2631 33.8976 32.4947C33.8976 31.7264 33.2748 31.1035 32.5064 31.1035C31.7381 31.1035 31.1152 31.7264 31.1152 32.4947C31.1152 33.2631 31.7381 33.8859 32.5064 33.8859Z" fill="#4A4848"/>
</g>
<defs>
<clipPath id="clip0_229_9195">
<rect width="65" height="65" fill="white"/>
</clipPath>
</defs>
</svg>
