<svg width="65" height="65" viewBox="0 0 65 65" fill="none" xmlns="http://www.w3.org/2000/svg">
<g clip-path="url(#clip0_229_9154)">
<path d="M30.722 43.9163H34.2794V34.0845H43.2262V30.5887H34.2794V20.7568H30.722V30.5887H21.8828V34.0845H30.722V43.9163Z" fill="#E8762D"/>
<path d="M14.2288 58.1178H17.2471V49.3784H25.2239V46.6473H17.2471V37.7986H14.2288V46.6473H6.25195V49.3784H14.2288V58.1181V58.1178Z" fill="#C72037"/>
<path d="M47.7522 26.5461H50.7705V17.8067H58.8552V15.1849H50.7705V6.33594H47.7522V15.1847H39.7754V17.8064H47.7522V26.5458V26.5461Z" fill="#5B879B"/>
<path d="M31.2609 64.9998H33.8479V58.7729H39.3453V56.4789H33.8479V50.252H31.2609V56.4789H25.8711V58.7729H31.2609V64.9998Z" fill="#5C6692"/>
<path d="M14.3367 26.5461H17.1392V17.6974H25.2239V15.1847H17.1392V6.33594H14.3367V15.1847H6.25195V17.6974H14.3367V26.5461Z" fill="#EB9129"/>
<path d="M56.9152 39.6556H59.5022V33.538H64.9996V31.1347H59.5022V25.0171H56.9152V31.1347H51.5254V33.538H56.9152V39.6556Z" fill="#5C6692"/>
<path fill-rule="evenodd" clip-rule="evenodd" d="M47.7522 58.1176H50.7705V49.3782H58.8552V46.6471H50.7705V37.7983H47.7522V46.6471H39.7754V49.3782H47.7522V58.1178V58.1176Z" fill="#1F457E"/>
<path d="M38.9137 7.86562V6.0085H33.5239V0H31.5835V6.0085H26.1937V7.86562H31.5835V13.8741H33.5239V7.86562H38.9137ZM5.3898 39.2185H7.33018V33.21H12.72V31.3529H7.33018V25.4537H5.3898V31.3529H0V33.3193L5.3898 33.21V39.2185Z" fill="#7199A6"/>
</g>
<defs>
<clipPath id="clip0_229_9154">
<rect width="65" height="65" fill="white"/>
</clipPath>
</defs>
</svg>
