<svg width="65" height="65" viewBox="0 0 65 65" fill="none" xmlns="http://www.w3.org/2000/svg">
<g clip-path="url(#clip0_229_8810)">
<path d="M32.222 0.0185547C15.7623 0.0185547 16.79 7.18512 16.79 7.18512L16.8083 14.6099H32.5155V16.839H10.5697C10.5697 16.839 0.0371094 15.6397 0.0371094 32.3141C0.0371094 48.989 9.23019 48.3977 9.23019 48.3977H14.7166V40.6599C14.7166 40.6599 14.4208 31.4299 23.7629 31.4299H39.3417C39.3417 31.4299 48.0942 31.5719 48.0942 22.9368V8.65922C48.0942 8.65922 49.4236 0.0185547 32.222 0.0185547ZM23.5611 5.01157C23.9323 5.01124 24.2999 5.08439 24.6428 5.22685C24.9858 5.36931 25.2975 5.57827 25.5599 5.84178C25.8224 6.10529 26.0305 6.41818 26.1724 6.76254C26.3143 7.1069 26.3871 7.47597 26.3868 7.84863C26.3871 8.2213 26.3143 8.59037 26.1724 8.93473C26.0305 9.27909 25.8224 9.59197 25.5599 9.85549C25.2975 10.119 24.9858 10.328 24.6428 10.4704C24.2999 10.6129 23.9323 10.686 23.5611 10.6857C23.1899 10.686 22.8223 10.6129 22.4793 10.4704C22.1364 10.328 21.8247 10.119 21.5623 9.85549C21.2998 9.59197 21.0917 9.27909 20.9498 8.93473C20.8079 8.59037 20.735 8.2213 20.7354 7.84863C20.735 7.47597 20.8079 7.1069 20.9498 6.76254C21.0917 6.41818 21.2998 6.10529 21.5623 5.84178C21.8247 5.57827 22.1364 5.36931 22.4793 5.22685C22.8223 5.08439 23.1899 5.01124 23.5611 5.01157Z" fill="url(#paint0_linear_229_8810)"/>
<path d="M32.6893 64.7772C49.149 64.7772 48.1212 57.6107 48.1212 57.6107L48.103 50.1861H32.3955V47.957H54.3414C54.3414 47.957 64.8739 49.1563 64.8739 32.4814C64.8739 15.8067 55.6808 16.3981 55.6808 16.3981H50.1944V24.1357C50.1944 24.1357 50.4902 33.3657 41.1481 33.3657H25.5694C25.5694 33.3657 16.8168 33.2237 16.8168 41.859V56.1368C16.8168 56.1368 15.4877 64.7772 32.689 64.7772H32.6893ZM41.3502 59.7847C40.979 59.785 40.6114 59.7119 40.2684 59.5694C39.9255 59.427 39.6138 59.218 39.3514 58.9545C39.0889 58.691 38.8808 58.3781 38.7389 58.0337C38.597 57.6894 38.5241 57.3203 38.5245 56.9477C38.5241 56.575 38.597 56.2059 38.7388 55.8615C38.8807 55.5171 39.0888 55.2042 39.3513 54.9406C39.6137 54.6771 39.9254 54.4681 40.2684 54.3256C40.6114 54.1832 40.979 54.11 41.3502 54.1103C41.7214 54.11 42.089 54.1832 42.4319 54.3256C42.7749 54.4681 43.0866 54.677 43.349 54.9405C43.6115 55.2041 43.8196 55.5169 43.9615 55.8613C44.1034 56.2057 44.1762 56.5747 44.1759 56.9474C44.1762 57.3201 44.1034 57.6891 43.9615 58.0335C43.8196 58.3778 43.6115 58.6907 43.349 58.9542C43.0866 59.2178 42.7749 59.4267 42.4319 59.5692C42.089 59.7116 41.7214 59.785 41.3502 59.7847Z" fill="url(#paint1_linear_229_8810)"/>
</g>
<defs>
<linearGradient id="paint0_linear_229_8810" x1="623.118" y1="582.486" x2="3848.99" y2="3763.4" gradientUnits="userSpaceOnUse">
<stop stop-color="#387EB8"/>
<stop offset="1" stop-color="#366994"/>
</linearGradient>
<linearGradient id="paint1_linear_229_8810" x1="936.485" y1="1012.04" x2="4400.06" y2="4273.17" gradientUnits="userSpaceOnUse">
<stop stop-color="#FFE052"/>
<stop offset="1" stop-color="#FFC331"/>
</linearGradient>
<clipPath id="clip0_229_8810">
<rect width="65" height="65" fill="white"/>
</clipPath>
</defs>
</svg>
