<svg width="65" height="65" viewBox="0 0 65 65" fill="none" xmlns="http://www.w3.org/2000/svg">
<g clip-path="url(#clip0_229_9119)">
<path d="M30.168 0.414062C31.8223 0.414062 33.5067 0.445925 35.161 0.477788C35.4618 0.477788 35.7927 0.509651 36.0935 0.541514C36.0935 5.38465 36.0935 10.2597 36.0935 15.1028C36.0935 31.2572 36.0935 47.3798 36.0935 63.5342C36.0935 64.3626 35.8529 64.5219 35.131 64.49C33.4466 64.4263 31.7321 64.49 30.0477 64.49C29.3258 64.49 28.9648 64.1077 28.9648 63.343C28.9648 50.5023 28.9648 37.6616 28.9648 24.7891C28.9648 16.6959 28.9648 8.60279 28.9648 0.541514C29.025 0.541514 29.0852 0.509651 29.1453 0.477788C29.4762 0.477788 29.8371 0.477788 30.168 0.477788V0.414062Z" fill="#FECC07" stroke="black" stroke-width="0.25" stroke-miterlimit="10"/>
<path d="M50.3518 53.1789C50.3518 53.9436 50.3518 54.7083 50.3518 55.5049C50.2616 55.5686 50.1412 55.6005 50.1112 55.6642C50.0811 55.8554 50.2315 55.8554 50.3518 55.8872C50.3518 56.6519 50.3518 57.4166 50.3518 58.2132C50.2916 58.2451 50.2014 58.2769 50.1413 58.3088C50.2014 58.3407 50.2916 58.3725 50.3518 58.4044C50.3518 59.1691 50.3518 59.9338 50.3518 60.7304C50.2616 60.7941 50.1412 60.826 50.1112 60.8897C50.0811 61.0809 50.2315 61.0809 50.3518 61.1127C50.3518 62.2279 50.3518 63.3431 50.3518 64.4264C48.2764 64.4264 46.231 64.4264 44.1556 64.522C43.3435 64.5539 43.1931 64.2671 43.1931 63.4706C43.1931 46.2647 43.1931 29.0588 43.1931 11.821C43.1931 8.28428 43.1931 4.74752 43.1931 1.21075C43.1931 0.828398 43.1329 0.446045 43.7345 0.446045C45.9302 0.446045 48.1561 0.446045 50.3518 0.446045C50.3518 15.9313 50.3518 31.4166 50.3518 46.9019C50.3518 47.0612 50.3518 47.1887 50.3518 47.348C50.2616 47.4117 50.1412 47.4436 50.1112 47.5073C50.0811 47.6985 50.2315 47.6985 50.3518 47.7304C50.3518 48.4951 50.3518 49.2598 50.3518 50.0563C50.2616 50.1201 50.1412 50.1519 50.1112 50.2157C50.0811 50.4068 50.2315 50.4068 50.3518 50.4387C50.3518 51.2034 50.3518 51.9681 50.3518 52.7647C50.2616 52.8284 50.1412 52.8603 50.1112 52.924C50.0811 53.1152 50.2315 53.1152 50.3518 53.147V53.1789Z" fill="#FECC07" stroke="black" stroke-width="0.25" stroke-miterlimit="10"/>
<path d="M7.54958 0.509775C7.54958 18.5122 7.54958 36.5147 7.54958 54.5171C7.54958 55.0907 7.54958 55.6642 7.54958 56.2377C7.5195 56.2696 7.45934 56.3333 7.42927 56.3652C5.11321 56.3652 2.79715 56.397 0.481094 56.4289C0.481094 56.174 0.451016 55.9191 0.420937 55.6642C0.751802 55.5049 0.751802 55.3456 0.420937 55.1544C0.420937 54.4215 0.420937 53.6887 0.420937 52.9559C0.751802 52.7965 0.751802 52.6372 0.420937 52.446C0.420937 51.7132 0.420937 50.9804 0.420937 50.2475C0.751802 50.0882 0.751802 49.9289 0.420937 49.7377C0.420937 49.0049 0.420937 48.272 0.420937 47.5392C0.751802 47.3799 0.751802 47.2206 0.420937 47.0294C0.420937 36.674 0.420937 26.3186 0.420937 15.9632C0.420937 11.0563 0.420937 6.14948 0.420937 1.24262C0.420937 0.860265 0.270544 0.382324 0.932274 0.382324C3.12802 0.414187 5.32376 0.414187 7.54958 0.44605V0.509775Z" fill="#FECC07" stroke="black" stroke-width="0.25" stroke-miterlimit="10"/>
<path d="M57.4805 32.4044C57.4805 30.6519 57.4805 28.8676 57.4805 27.1152C57.4805 26.5735 57.6008 26.3823 58.1422 26.3823C60.0973 26.3823 62.0223 26.3823 63.9775 26.3823C64.5189 26.3823 64.6392 26.6054 64.6392 27.1152C64.6392 30.6519 64.6392 34.1568 64.6392 37.6936C64.6392 38.2353 64.4888 38.4264 63.9775 38.4264C62.0223 38.4264 60.0672 38.4264 58.1422 38.4264C57.6008 38.4264 57.4805 38.2034 57.5105 37.6936C57.5105 35.9411 57.5105 34.1568 57.5105 32.4044H57.4805Z" fill="#FECC07" stroke="black" stroke-width="0.25" stroke-miterlimit="10"/>
<path d="M0.451564 56.3972C2.76762 56.3972 5.08368 56.3654 7.39974 56.3335L7.45989 56.3972H7.52005C7.52005 58.9144 7.58021 61.4315 7.58021 63.9487C7.52005 64.108 7.42982 64.2673 7.36966 64.4266C7.27942 64.3629 7.18919 64.331 7.09895 64.4266H6.8884C6.55753 64.4585 6.19659 64.4585 5.86572 64.4585C4.27155 64.4585 2.67739 64.4585 1.05314 64.4266V64.3629L0.99298 64.4266C0.812508 64.4266 0.632036 64.4266 0.481643 64.4266C0.451564 64.3948 0.391407 64.331 0.361328 64.2992C0.361328 61.6546 0.391407 59.0418 0.421485 56.3972H0.451564Z" fill="#EE2024" stroke="black" stroke-width="0.25" stroke-miterlimit="10"/>
<path d="M50.3523 47.7622C50.3523 47.7622 50.0816 47.7304 50.1117 47.5392C50.1117 47.4755 50.2621 47.4436 50.3523 47.3799C50.3523 47.5073 50.3523 47.6348 50.3523 47.7622Z" fill="#FFDF5A" stroke="black" stroke-width="0.25" stroke-miterlimit="10"/>
<path d="M50.3523 50.4707C50.3523 50.4707 50.0816 50.4389 50.1117 50.2477C50.1117 50.184 50.2621 50.1521 50.3523 50.0884C50.3523 50.2158 50.3523 50.3433 50.3523 50.4707Z" fill="#FFDF5A" stroke="black" stroke-width="0.25" stroke-miterlimit="10"/>
<path d="M50.3523 53.1787C50.3523 53.1787 50.0816 53.1469 50.1117 52.9557C50.1117 52.892 50.2621 52.8601 50.3523 52.7964C50.3523 52.9238 50.3523 53.0513 50.3523 53.1787Z" fill="#FFDF5A" stroke="black" stroke-width="0.25" stroke-miterlimit="10"/>
<path d="M50.3523 55.8555C50.3523 55.8555 50.0816 55.8236 50.1117 55.6325C50.1117 55.5687 50.2621 55.5369 50.3523 55.4731C50.3523 55.6006 50.3523 55.728 50.3523 55.8555Z" fill="#FFDF5A" stroke="black" stroke-width="0.25" stroke-miterlimit="10"/>
<path d="M50.3523 61.0811C50.3523 61.0811 50.0816 61.0492 50.1117 60.858C50.1117 60.7943 50.2621 60.7625 50.3523 60.6987C50.3523 60.8262 50.3523 60.9536 50.3523 61.0811Z" fill="#FFDF5A" stroke="black" stroke-width="0.25" stroke-miterlimit="10"/>
<path d="M50.3512 58.3723C50.3512 58.3723 50.2008 58.3086 50.1406 58.2767C50.2008 58.2449 50.291 58.213 50.3512 58.1812C50.3512 58.2449 50.3512 58.3086 50.3512 58.3723Z" fill="#FFDF5A" stroke="black" stroke-width="0.25" stroke-miterlimit="10"/>
<path d="M7.51875 56.3972H7.45859L7.39844 56.3335C7.42852 56.3016 7.48867 56.2379 7.51875 56.2061C7.51875 56.2698 7.51875 56.3335 7.51875 56.3972Z" fill="#FFDF5A" stroke="black" stroke-width="0.25" stroke-miterlimit="10"/>
<path d="M14.709 20.1055C14.709 13.5736 14.709 7.00989 14.709 0.478027C16.8446 0.478027 18.9501 0.478027 21.0857 0.478027C21.6572 0.478027 21.8677 0.701067 21.8376 1.2746C21.8376 1.56136 21.8376 1.87999 21.8376 2.16675C21.8376 22.5589 21.8376 42.9511 21.8376 63.3751C21.8376 64.2672 21.6872 64.554 20.7849 64.5221C18.9802 64.4266 17.1754 64.4903 15.3707 64.5221C14.8594 64.5221 14.709 64.3628 14.709 63.7893C14.709 54.6128 14.709 45.4682 14.709 36.2918C14.7391 36.2918 14.7992 36.228 14.8293 36.228C14.7992 36.228 14.7391 36.1643 14.709 36.1643C14.709 35.304 14.709 34.4756 14.709 33.6153C14.7391 33.6153 14.7992 33.5516 14.8293 33.5516L14.709 33.4878C14.709 30.0148 14.709 26.5099 14.709 23.0368C14.7391 23.0368 14.7992 22.9731 14.8293 22.9731L14.709 22.9094C14.709 22.0491 14.709 21.2207 14.709 20.3604C14.7391 20.3604 14.7992 20.2967 14.8293 20.2967C14.7992 20.2967 14.7391 20.2329 14.709 20.2329V20.1055Z" fill="#FECC07" stroke="black" stroke-width="0.25" stroke-miterlimit="10"/>
<path d="M7.39961 64.4265C7.39961 64.4265 7.21914 64.4265 7.12891 64.4265C7.21914 64.331 7.30938 64.3628 7.39961 64.4265Z" fill="#FFDF5A" stroke="black" stroke-width="0.25" stroke-miterlimit="10"/>
<path d="M1.08359 64.4264H1.02344L1.05352 64.3945L1.08359 64.4264Z" fill="#FFDF5A" stroke="black" stroke-width="0.25" stroke-miterlimit="10"/>
</g>
<defs>
<clipPath id="clip0_229_9119">
<rect width="65" height="65" fill="white"/>
</clipPath>
</defs>
</svg>
