<svg width="58" height="65" viewBox="0 0 58 65" fill="none" xmlns="http://www.w3.org/2000/svg">
<g clip-path="url(#clip0_229_9207)">
<path d="M57.9993 56.8659C58.0231 61.3286 54.4679 64.9625 50.0623 64.9866C49.7348 64.9893 49.4046 64.9705 49.0797 64.9304C44.991 64.3181 41.9958 60.7163 42.0962 56.5343V8.4517C41.9985 4.26433 45.0016 0.66255 49.0929 0.0555683C53.4695 -0.463174 57.4341 2.70811 57.9465 7.13881C57.9835 7.46502 58.0019 7.79124 57.9993 8.12014V56.8659Z" fill="#F9AB00"/>
<path d="M7.95288 48.8976C12.3453 48.8976 15.9058 52.5021 15.9058 56.9488C15.9058 61.3956 12.3453 65 7.95288 65C3.56044 65 0 61.3956 0 56.9488C0 52.5021 3.56044 48.8976 7.95288 48.8976ZM28.8771 24.498C24.4635 24.744 21.0404 28.4902 21.1434 32.9637V54.5878C21.1434 60.457 23.6949 64.0187 27.4323 64.7781C31.7455 65.6632 35.9477 62.8422 36.822 58.4756C36.9303 57.9409 36.9831 57.3981 36.9805 56.8526V32.5893C36.9884 28.1266 33.4227 24.5034 29.0144 24.4954C28.9695 24.4954 28.922 24.4954 28.8771 24.498Z" fill="#E37400"/>
</g>
<defs>
<clipPath id="clip0_229_9207">
<rect width="58" height="65" fill="white"/>
</clipPath>
</defs>
</svg>
