<svg width="1190" height="324" viewBox="0 0 1190 324" fill="none" xmlns="http://www.w3.org/2000/svg">
<path d="M1147.75 0C1129.76 0 1113.48 11.7733 1108.05 29.0025L1014.97 317.018H1102.91L1187.72 54.8464C1196.29 27.8539 1176.3 0 1147.75 0Z" fill="black"/>
<path d="M538.974 6.31836H263.136L238.008 84.137H430.752L182.612 252.409C163.481 265.331 159.769 292.036 174.617 309.553C187.467 324.772 209.454 327.931 225.73 316.732L476.153 146.737L421.614 317.306H509.562L588.087 74.3738C598.938 40.7768 574.096 6.31836 538.974 6.31836Z" fill="#00C7B1"/>
<path d="M-137.488 6.31836L-238 317.306H-150.052L-74.6678 84.137H104.94L-17.2731 167.124C-34.9769 179.185 -40.9734 203.593 -29.266 221.397C-17.2731 239.774 6.99828 244.369 24.7021 232.308L177.184 128.933C231.723 91.8902 205.738 6.31836 140.063 6.60551L-137.488 6.31836Z" fill="black"/>
<path d="M969.58 6.60522H692.03L591.518 317.306H679.466L754.85 84.1368H934.458L775.695 192.107L874.208 310.127C887.057 325.346 909.044 328.505 925.321 317.306C944.452 304.384 948.164 277.678 933.316 260.162L889.913 208.187L1006.99 128.933C1061.24 91.8899 1035.26 6.60522 969.58 6.60522Z" fill="black"/>
</svg>
