<svg width="32" height="32" viewBox="0 0 32 32" fill="none" xmlns="http://www.w3.org/2000/svg">
<path d="M16.01 32C7.20106 32.012 0.017364 24.8533 3.14326e-05 16.044C-0.0173012 7.19468 7.13573 0.0160266 15.9873 2.66546e-05C24.7816 -0.0159733 31.9947 7.17335 32 15.9587C32.0053 24.8213 24.8616 31.9867 16.0087 31.9987L16.01 32ZM15.974 11.7573C16.2047 11.9733 16.3833 12.1333 16.5527 12.3013C18.2166 13.964 19.8752 15.632 21.5458 17.288C22.0804 17.8187 22.6804 17.8427 23.1377 17.3987C23.591 16.9573 23.5817 16.3267 23.0684 15.8093C20.9885 13.7147 18.9032 11.6267 16.8073 9.54801C16.294 9.03868 15.718 9.02935 15.2154 9.52801C13.0875 11.636 10.9716 13.7587 8.85832 15.8813C8.493 16.2493 8.41167 16.692 8.66499 17.1613C9.03564 17.848 9.81828 17.9133 10.4543 17.2893C11.5635 16.2013 12.6555 15.0973 13.7528 13.9973C14.4861 13.2627 15.214 12.524 15.974 11.7573ZM16.002 16.8613C17.8339 18.696 19.6019 20.472 21.3804 22.2373C21.5951 22.4507 21.8471 22.68 22.1231 22.7667C22.6124 22.92 23.0537 22.7493 23.3164 22.284C23.6124 21.7613 23.455 21.304 23.0524 20.9027C21.0271 18.8787 19.0059 16.852 16.978 14.8307C16.2447 14.1 15.75 14.1067 15.0021 14.8533C13.0381 16.8133 11.0769 18.7747 9.11831 20.74C8.96231 20.896 8.72233 21.0653 8.70766 21.244C8.67433 21.632 8.63433 22.124 8.83699 22.3973C9.02098 22.6453 9.52362 22.7587 9.87961 22.7453C10.1343 22.736 10.4076 22.4507 10.6222 22.2387C12.4008 20.4747 14.1688 18.6973 16.002 16.8627V16.8613Z" fill="#00C7B1"/>
</svg>
