<svg width="35" height="35" viewBox="0 0 35 35" fill="none" xmlns="http://www.w3.org/2000/svg">
<g clip-path="url(#clip0_401_406)">
<path d="M17.4969 35.0007C7.81224 34.977 -0.111763 27.1554 0.00119285 17.2821C0.110865 7.66475 7.93374 -0.100411 17.6999 0.0019776C27.3129 0.102398 35.147 7.9286 34.9979 17.7803C34.8528 27.3668 27.0811 34.9744 17.4969 35.0013V35.0007ZM21.0557 25.0322C21.0557 24.8825 21.0557 24.7644 21.0557 24.6462C21.0557 22.9844 21.0386 21.3219 21.0642 19.66C21.0741 19.0299 21.1253 18.39 21.2553 17.775C21.4767 16.7301 22.3114 16.1237 23.3785 16.1394C24.3104 16.1532 24.8726 16.6382 25.0059 17.5538C25.0354 17.7586 25.0532 17.9673 25.0538 18.1741C25.067 20.3275 25.0748 22.4816 25.0847 24.6351C25.0847 24.7624 25.0847 24.8897 25.0847 25.0249H27.9355V24.6515C27.9355 22.9673 27.9421 21.2838 27.9329 19.5996C27.9283 18.7694 27.9244 17.9371 27.8692 17.1095C27.7589 15.4614 26.8848 14.3896 25.3526 14.0326C23.8711 13.6873 22.5576 14.0286 21.4497 15.0919C21.3315 15.2048 21.2179 15.3223 21.038 15.5021V9.59373H18.2344V25.0315H21.055L21.0557 25.0322ZM7.13845 9.59439V25.023H9.95907V24.643C9.95907 23.3743 9.94331 22.1049 9.96432 20.8368C9.98008 19.8983 9.98665 18.9538 10.1016 18.0244C10.2408 16.8929 10.9914 16.2359 12.0928 16.1493C13.0214 16.0764 13.839 16.5411 13.9171 17.5932C13.9303 17.7678 13.9546 17.9417 13.9559 18.1163C13.9703 20.2927 13.9808 22.4685 13.9927 24.6449C13.9933 24.7709 13.9927 24.8963 13.9927 25.019H16.8389C16.8389 24.8602 16.8389 24.7309 16.8389 24.601C16.8389 22.8288 16.8448 21.0574 16.8363 19.2853C16.833 18.5423 16.8297 17.7967 16.7712 17.057C16.6832 15.9458 16.2767 14.9751 15.2371 14.4296C13.7063 13.6263 12.2057 13.7103 10.7885 14.7296C10.5094 14.9304 10.2677 15.1838 9.96104 15.4555V9.59505H7.13976L7.13845 9.59439Z" fill="black"/>
</g>
<defs>
<clipPath id="clip0_401_406">
<rect width="35" height="35" fill="white"/>
</clipPath>
</defs>
</svg>
