<svg width="35" height="35" viewBox="0 0 35 35" fill="none" xmlns="http://www.w3.org/2000/svg">
<path d="M17.4969 35.0002C7.81224 34.9765 -0.111763 27.1549 0.00119285 17.2816C0.110865 7.66426 7.93374 -0.1009 17.6999 0.00148932C27.3129 0.101909 35.147 7.92811 34.9979 17.7798C34.8528 27.3663 27.0811 34.9739 17.4969 35.0008V35.0002ZM21.0557 25.0317C21.0557 24.882 21.0557 24.7639 21.0557 24.6458C21.0557 22.9839 21.0386 21.3214 21.0642 19.6595C21.0741 19.0294 21.1253 18.3895 21.2553 17.7745C21.4767 16.7296 22.3114 16.1232 23.3785 16.1389C24.3104 16.1527 24.8726 16.6377 25.0059 17.5533C25.0354 17.7581 25.0532 17.9668 25.0538 18.1736C25.067 20.327 25.0748 22.4811 25.0847 24.6346C25.0847 24.7619 25.0847 24.8893 25.0847 25.0245H27.9355V24.651C27.9355 22.9668 27.9421 21.2833 27.9329 19.5991C27.9283 18.7689 27.9244 17.9366 27.8692 17.109C27.7589 15.4609 26.8848 14.3891 25.3526 14.0321C23.8711 13.6868 22.5576 14.0281 21.4497 15.0914C21.3315 15.2043 21.2179 15.3218 21.038 15.5016V9.59325H18.2344V25.031H21.055L21.0557 25.0317ZM7.13845 9.5939V25.0225H9.95907V24.6425C9.95907 23.3738 9.94331 22.1044 9.96432 20.8364C9.98008 19.8978 9.98665 18.9533 10.1016 18.0239C10.2408 16.8924 10.9914 16.2354 12.0928 16.1488C13.0214 16.0759 13.839 16.5406 13.9171 17.5927C13.9303 17.7673 13.9546 17.9412 13.9559 18.1158C13.9703 20.2922 13.9808 22.468 13.9927 24.6444C13.9933 24.7705 13.9927 24.8958 13.9927 25.0186H16.8389C16.8389 24.8597 16.8389 24.7304 16.8389 24.6005C16.8389 22.8283 16.8448 21.0569 16.8363 19.2848C16.833 18.5418 16.8297 17.7962 16.7712 17.0565C16.6832 15.9453 16.2767 14.9746 15.2371 14.4292C13.7063 13.6258 12.2057 13.7098 10.7885 14.7291C10.5094 14.9299 10.2677 15.1833 9.96104 15.455V9.59456H7.13976L7.13845 9.5939Z" fill="#F8F9FA"/>
</svg>
