<svg width="143" height="58" viewBox="0 0 143 58" fill="none" xmlns="http://www.w3.org/2000/svg">
<path d="M130.897 45.6864H134.009C133.652 48.1801 131.685 49.8601 129.096 49.8601C126.143 49.8601 124.018 47.7964 124.018 44.9522C124.018 42.1079 126.137 40.0839 129.11 40.0839C131.692 40.0839 133.632 41.7111 133.983 44.1584H130.897C130.632 43.411 129.931 42.9215 129.103 42.9215C127.991 42.9215 127.196 43.7682 127.196 44.9654C127.196 46.1626 127.997 47.0291 129.103 47.0291C129.951 47.0291 130.639 46.5066 130.904 45.6864H130.897ZM139.61 43.7946C138.737 43.6359 138.035 43.5168 138.035 42.9943C138.035 42.571 138.379 42.3196 138.882 42.3196C139.458 42.3196 139.849 42.5908 139.849 43.1795H142.815C142.782 41.3142 141.259 40.0707 138.922 40.0707C136.585 40.0707 134.996 41.2613 134.996 43.1001C134.996 45.3292 136.889 45.7591 138.313 45.9907C139.193 46.1362 139.895 46.2883 139.895 46.8175C139.895 47.2937 139.458 47.5318 138.995 47.5318C138.392 47.5318 137.929 47.221 137.929 46.5529H134.877C134.903 48.5439 136.432 49.8668 138.935 49.8668C141.438 49.8668 143 48.61 143 46.6918C143 44.3635 141.067 44.0592 139.617 43.8013L139.61 43.7946ZM60.2585 31.8554C60.2585 30.2415 61.2186 29.2493 62.3243 28.5085C61.3907 27.179 61.1987 26.4845 61.1987 25.7899C61.1987 23.8519 62.801 22.7869 64.8137 22.7869C66.8265 22.7869 68.4023 23.8717 68.4023 25.7833C68.4023 27.4105 67.1774 28.3365 65.8996 29.1104C66.3101 29.6131 66.7934 30.1687 67.3363 30.7971C67.5349 30.3738 67.6607 29.9042 67.7071 29.4081H70.2892C70.2297 30.731 69.8192 31.9084 69.1438 32.8675C69.7463 33.5554 70.4084 34.3028 71.1169 35.1164H67.9918C67.7932 34.8981 67.6011 34.6931 67.4158 34.488C66.4822 35.0569 65.3633 35.381 64.145 35.381C61.8542 35.381 60.2651 33.9522 60.2651 31.8621L60.2585 31.8554ZM63.9199 25.8759C63.9199 26.2199 64.1119 26.6697 64.4959 27.2584C65.1977 26.8416 65.7009 26.4249 65.7009 25.8759C65.7009 25.3269 65.3169 25.016 64.8137 25.016C64.3105 25.016 63.9199 25.3335 63.9199 25.8759ZM63.1188 31.7628C63.1188 32.4243 63.622 32.8675 64.3834 32.8675C64.8336 32.8675 65.264 32.755 65.6678 32.5566C64.9528 31.7496 64.3436 31.0551 63.8338 30.4399C63.3968 30.817 63.1188 31.2403 63.1188 31.7628ZM122.528 36.5385H119.41V39.224H122.528V36.5385ZM85.9345 17.3829C85.9345 19.4268 87.1726 20.6703 89.2053 20.6703H91.3836V17.8988H90.1653C89.4966 17.8988 89.0993 17.502 89.0993 16.8405V13.9169H91.3306V11.4761H89.0199V8.79064H88.371L84.2528 13.1761V13.9169H85.9345V17.3829ZM65.6877 20.6703H60.861V8.75757H65.6877C69.2961 8.75757 71.8452 11.2248 71.8452 14.704C71.8452 18.1832 69.2895 20.6703 65.6877 20.6703ZM65.5354 17.6673C67.3032 17.6673 68.4751 16.4635 68.4751 14.704C68.4751 12.9446 67.2966 11.7606 65.5354 11.7606H64.1649V17.6607H65.5354V17.6673ZM115.623 45.7459V42.8223H117.854V40.3815H115.543V37.6961H114.895L110.776 42.0815V42.8223H112.458V46.2883C112.458 48.3322 113.696 49.5691 115.729 49.5691H117.907V46.7976H116.689C116.02 46.7976 115.623 46.4007 115.623 45.7459ZM67.6011 37.663L72.3881 49.5757H68.7731L68.1176 47.6443H63.8934L63.2313 49.5757H59.709L64.39 37.663H67.6011ZM67.3098 45.0712L65.9923 41.3803L64.6879 45.0712H67.3098ZM91.7941 40.3749H94.1577V49.5625H91.708L91.4365 48.9143C90.6817 49.5228 89.7283 49.8734 88.6623 49.8734C85.8484 49.8734 83.8423 47.8229 83.8423 44.9654C83.8423 42.1079 85.8551 40.0905 88.6623 40.0905C89.7482 40.0905 90.7148 40.4543 91.4696 41.0761L91.7941 40.3683V40.3749ZM91.1452 44.9786C91.1452 43.788 90.2712 42.8884 89.0861 42.8884C87.901 42.8884 87.027 43.7814 87.027 44.9786C87.027 46.1759 87.901 47.0754 89.0861 47.0754C90.2712 47.0754 91.1452 46.1825 91.1452 44.9786ZM96.1573 49.5757H99.3287V37.0677H96.1573V49.5757ZM107.532 40.3882L105.711 45.4483L103.758 40.3882H100.315L104.116 48.8217C103.685 49.966 103.321 50.2835 102.109 50.2835H101.236V53.002H102.321C104.698 53.002 105.837 51.9834 107.075 49.1722L110.929 40.3948H107.525L107.532 40.3882ZM102.58 20.6703H100.13L99.8584 20.0221C99.1036 20.6306 98.1502 20.9812 97.0842 20.9812C94.2703 20.9812 92.2641 18.9307 92.2641 16.0732C92.2641 13.2157 94.2769 11.2049 97.0842 11.2049C98.17 11.2049 99.1367 11.5687 99.8915 12.1905L100.216 11.4827H102.58V20.6703ZM99.567 16.0798C99.567 14.8892 98.6931 13.9896 97.5079 13.9896C96.3228 13.9896 95.4488 14.8826 95.4488 16.0798C95.4488 17.2771 96.3228 18.1766 97.5079 18.1766C98.6931 18.1766 99.567 17.2837 99.567 16.0798ZM78.9428 40.117C77.751 40.117 76.7314 40.5734 76.0495 41.334L75.6125 40.3882H73.3878V49.5757H76.5593V44.6678C76.5593 43.497 77.1287 42.8091 78.1152 42.8091C78.9097 42.8091 79.3136 43.3382 79.3136 44.4098V49.5757H82.485V43.9732C82.485 41.6317 81.0814 40.117 78.9428 40.117ZM119.397 49.5757H122.568V40.3882H119.397V49.5757ZM80.8364 11.4761H83.2001V20.6637H80.7503L80.4789 20.0155C79.7241 20.624 78.7707 20.9746 77.7047 20.9746C74.8908 20.9746 72.8847 18.9241 72.8847 16.0666C72.8847 13.2091 74.8974 11.1983 77.7047 11.1983C78.7905 11.1983 79.7572 11.5621 80.512 12.1839L80.8364 11.4761ZM80.1875 16.0798C80.1875 14.8892 79.3136 13.9896 78.1284 13.9896C76.9433 13.9896 76.0693 14.8826 76.0693 16.0798C76.0693 17.2771 76.9433 18.1766 78.1284 18.1766C79.3136 18.1766 80.1875 17.2837 80.1875 16.0798Z" fill="white"/>
<path d="M56.8143 28.1646C51.6831 23.0383 48.8626 16.2254 48.8626 8.9825V8.37397H48.2534C40.9969 8.37397 34.1773 5.54957 29.0527 0.429943L28.6223 0L28.192 0.429943C23.0607 5.55619 16.2412 8.37397 8.99124 8.37397H8.38211V8.9825C8.38211 16.232 5.55497 23.0449 0.430361 28.1646L0 28.5945L0.430361 29.0245C5.56159 34.1507 8.38211 40.9636 8.38211 48.2065V48.8151H8.99124C16.2478 48.8151 23.0674 51.6395 28.192 56.7591L28.6223 57.189L29.0527 56.7591C34.1839 51.6328 41.0035 48.8151 48.2534 48.8151H48.8626V48.2065C48.8626 40.957 51.6897 34.1441 56.8143 29.0245L57.2447 28.5945L56.8143 28.1646ZM27.1459 29.2031L23.213 33.1321C23.1071 32.4243 22.9085 31.7298 22.637 31.0683C22.3589 30.4003 22.008 29.7785 21.5843 29.2031H27.1525H27.1459ZM21.5777 27.986C22.0014 27.4105 22.3523 26.7821 22.6304 26.1207C22.9085 25.4526 23.1005 24.7647 23.2064 24.057L27.1392 27.986H21.571H21.5777ZM28.0066 30.0629V35.6257C27.4306 35.2024 26.8016 34.8518 26.1395 34.574C25.4708 34.2962 24.7822 34.1044 24.0737 33.9986L28.0066 30.0696V30.0629ZM24.0737 23.1905C24.7822 23.0846 25.4774 22.8862 26.1395 22.615C26.8082 22.3372 27.4306 21.9866 28.0066 21.5633V27.1261L24.0737 23.1971V23.1905ZM22.9548 22.0726L19.3265 18.4479L18.1679 17.2903L17.4594 16.5826C19.3133 16.4106 21.134 15.974 22.8687 15.2597C24.7557 14.4792 26.4838 13.4076 28.0066 12.0715V19.9824C26.6294 21.2723 24.8418 22.0131 22.9548 22.0726ZM17.3071 18.1568L18.4658 19.3144L22.0941 22.9391C22.0345 24.8242 21.2929 26.6102 20.0019 27.986H12.1229C13.3875 26.5043 14.4204 24.8441 15.1686 23.0317C15.9167 21.2193 16.367 19.321 16.5259 17.3763L17.3138 18.1634L17.3071 18.1568ZM13.2353 29.2031H20.0019C21.2929 30.5789 22.0345 32.3648 22.0941 34.2499L18.4658 37.8747L17.3071 39.0322L16.5193 39.8193C16.367 37.8747 15.9167 35.9697 15.162 34.1639C14.4138 32.3516 13.3809 30.6913 12.1163 29.2097H13.2286L13.2353 29.2031ZM18.1745 39.8921L19.3332 38.7346L22.9614 35.1098C24.8484 35.1693 26.6361 35.9102 28.0132 37.2V45.0713C26.5301 43.8079 24.8683 42.776 23.0541 42.0286C21.24 41.2811 19.3332 40.8314 17.3932 40.6792L18.1811 39.8921H18.1745ZM19.8496 7.42809C22.8621 6.17795 25.6098 4.44495 28.0132 2.26878V10.193L27.808 10.398C24.6763 13.4539 20.5514 15.1869 16.1816 15.2994L15.3076 14.4262L15.2017 14.3204L14.0298 13.1496L13.9437 13.0637L10.4346 9.55796C13.6789 9.39922 16.8437 8.68485 19.8562 7.43471L19.8496 7.42809ZM7.4287 19.8303C8.67343 16.8207 9.3885 13.6523 9.55402 10.4179L13.1492 14.0095L14.3211 15.1803L15.2083 16.0666V16.1063C15.1553 20.5645 13.4074 24.7713 10.2956 27.9595L10.2691 27.986H2.27098C4.44927 25.5783 6.18396 22.8399 7.43532 19.8303H7.4287ZM7.4287 37.3654C6.18396 34.3558 4.44265 31.6107 2.26436 29.2097H10.2691L10.2956 29.2361C13.414 32.4243 15.1553 36.6311 15.2083 41.0893V41.129L14.3211 42.0154L13.1492 43.1861L9.55402 46.7778C9.39512 43.5367 8.68005 40.375 7.4287 37.3654ZM28.0066 49.8403V54.9203C25.5966 52.7441 22.8555 51.0111 19.843 49.7609C16.8304 48.5174 13.6656 47.803 10.4214 47.6377L14.0165 44.046L15.1884 42.8752L16.0756 41.9889H16.1154C20.5779 42.0418 24.7888 43.788 27.9801 46.8969L28.0066 46.9233V49.8337V49.8403ZM29.2248 7.36195V2.27539C31.6349 4.45156 34.3759 6.18457 37.3885 7.43471C40.401 8.67823 43.5658 9.3926 46.8101 9.55796L43.2149 13.1496L42.043 14.3204L41.1558 15.2068H41.1161C36.6535 15.1538 32.4426 13.4076 29.2513 10.2988L29.2248 10.2723V7.36195ZM30.0856 29.2097H35.6538C35.23 29.7851 34.8791 30.4135 34.601 31.075C34.323 31.743 34.131 32.4309 34.025 33.1387L30.0922 29.2097H30.0856ZM33.1577 34.0052C32.4492 34.111 31.754 34.3095 31.0919 34.5807C30.4232 34.8585 29.8009 35.209 29.2248 35.6324V30.0696L33.1577 33.9986V34.0052ZM29.2248 27.1327V21.5699C29.8009 21.9932 30.4298 22.3438 31.0919 22.6216C31.7607 22.8994 32.4492 23.0912 33.1577 23.1971L29.2248 27.1261V27.1327ZM30.0856 27.9926L34.0184 24.0636C34.1243 24.7713 34.323 25.4659 34.5944 26.1273C34.8725 26.7888 35.2234 27.4171 35.6472 27.9926H30.0789H30.0856ZM34.2766 22.0792C32.3897 22.0197 30.602 21.2789 29.2248 19.989V12.1178C30.7079 13.3811 32.3698 14.413 34.1839 15.1605C35.9981 15.9079 37.8983 16.3577 39.8448 16.5164L39.0569 17.3036L37.8983 18.4611L34.27 22.0858L34.2766 22.0792ZM29.2248 43.9666V37.2066C30.602 35.9168 32.3897 35.176 34.2766 35.1164L37.9049 38.7412L39.0636 39.8987L39.8515 40.6858C37.9049 40.838 36.0047 41.2878 34.1905 42.0352C32.3764 42.7893 30.7146 43.8145 29.2315 45.0779V43.9666H29.2248ZM39.9243 39.0322L38.7656 37.8747L38.6133 37.7225L35.144 34.2565C35.2035 32.3714 35.9451 30.5855 37.2362 29.2097H45.1085C43.8439 30.6913 42.811 32.3582 42.0628 34.1639C41.3147 35.9763 40.8645 37.8747 40.7122 39.8193L39.9243 39.0322ZM43.9962 27.986H37.2296C35.9385 26.6102 35.1969 24.8242 35.1373 22.9391L38.7656 19.3144L39.9243 18.1568L40.7585 17.3234C40.8976 19.3276 41.361 21.2921 42.1291 23.164C42.8574 24.9235 43.8571 26.5374 45.0688 27.9926H43.9895L43.9962 27.986ZM37.3885 49.7609C34.3759 51.0111 31.6282 52.7441 29.2248 54.9203V46.9233L29.2513 46.8969C32.4426 43.7814 36.6535 42.0418 41.1161 41.9889H41.1558L42.043 42.8752L43.2149 44.046L46.8101 47.6377C43.5658 47.803 40.3944 48.5108 37.3885 49.7609ZM49.7961 37.3654C48.5514 40.375 47.8363 43.5433 47.6708 46.7778L44.0756 43.1861L42.9037 42.0154L42.0165 41.129V41.0893C42.0695 36.6311 43.8174 32.4243 46.9292 29.2361L46.9557 29.2097H54.9604C52.7822 31.6173 51.0475 34.3558 49.7961 37.3654ZM49.8689 27.9926H46.9028C43.8505 24.8176 42.1357 20.6505 42.0827 16.2386V16.0005L42.8971 15.1803L44.069 14.0095L47.6642 10.4179C47.8231 13.659 48.5381 16.8207 49.7895 19.8303C51.0342 22.8399 52.7755 25.5849 54.9538 27.986H49.8689V27.9926Z" fill="white"/>
<path d="M25.1411 14.3864C25.1411 15.5968 24.1612 16.5758 22.9495 16.5758C21.7379 16.5758 20.758 15.5968 20.758 14.3864C20.758 13.1759 21.7379 12.197 22.9495 12.197C24.1612 12.197 25.1411 13.1759 25.1411 14.3864ZM5.01339 21.4044C3.94742 21.4044 3.08008 22.2709 3.08008 23.3358C3.08008 24.4008 3.94742 25.2673 5.01339 25.2673C6.07936 25.2673 6.94671 24.4008 6.94671 23.3358C6.94671 22.2709 6.07936 21.4044 5.01339 21.4044ZM37.3766 4.74243C36.3569 4.74243 35.5293 5.56925 35.5293 6.58788C35.5293 7.60651 36.3569 8.43333 37.3766 8.43333C38.3962 8.43333 39.2238 7.60651 39.2238 6.58788C39.2238 5.56925 38.3962 4.74243 37.3766 4.74243ZM40.5149 38.0729C39.098 38.0729 37.9526 39.2173 37.9526 40.6328C37.9526 42.0483 39.098 43.1926 40.5149 43.1926C41.9318 43.1926 43.0772 42.0483 43.0772 40.6328C43.0772 39.2173 41.9318 38.0729 40.5149 38.0729ZM28.6369 33.8198C27.22 33.8198 26.0746 34.9641 26.0746 36.3796C26.0746 37.7951 27.22 38.9394 28.6369 38.9394C30.0538 38.9394 31.1992 37.7951 31.1992 36.3796C31.1992 34.9641 30.0538 33.8198 28.6369 33.8198ZM9.11838 44.3501C7.34396 44.3501 5.90722 45.7855 5.90722 47.5581C5.90722 49.3308 7.34396 50.7662 9.11838 50.7662C10.8928 50.7662 12.3295 49.3308 12.3295 47.5581C12.3295 45.7855 10.8928 44.3501 9.11838 44.3501ZM14.296 32.1133C13.2234 32.1133 12.356 32.9798 12.356 34.0513C12.356 35.1229 13.2234 35.9894 14.296 35.9894C15.3685 35.9894 16.2359 35.1229 16.2359 34.0513C16.2359 32.9798 15.3685 32.1133 14.296 32.1133Z" fill="white"/>
</svg>
