<?xml version="1.0" encoding="utf-8"?>
<!-- Generator: Adobe Illustrator 27.2.0, SVG Export Plug-In . SVG Version: 6.00 Build 0)  -->
<svg version="1.1" id="Слой_1" xmlns="http://www.w3.org/2000/svg" xmlns:xlink="http://www.w3.org/1999/xlink" x="0px" y="0px"
	 viewBox="0 0 142 34.2" style="enable-background:new 0 0 142 34.2;" xml:space="preserve">
<style type="text/css">
	.st0{fill:#00C7B1;}
</style>
<g>
	<path d="M137.4,1.1c-1.8,0-3.4,1.2-3.9,2.9l-9.2,28.4h8.7l8.4-25.9C142.2,3.9,140.2,1.1,137.4,1.1z"/>
	<path class="st0" d="M77.2,1.7H50l-2.5,7.7h19L42,26c-1.9,1.3-2.3,3.9-0.8,5.6c1.3,1.5,3.4,1.8,5,0.7L71,15.6l-5.4,16.8h8.7l7.8-24
		C83.2,5.1,80.7,1.7,77.2,1.7z"/>
	<path d="M10.4,1.7L0.5,32.4h8.7l7.4-23h17.7l-12.1,8.2c-1.7,1.2-2.3,3.6-1.2,5.4c1.2,1.8,3.6,2.3,5.3,1.1l15.1-10.2
		c5.4-3.7,2.8-12.1-3.7-12.1L10.4,1.7z"/>
	<path d="M119.8,1.8H92.4l-9.9,30.7h8.7l7.4-23h17.7l-15.7,10.7l9.7,11.7c1.3,1.5,3.4,1.8,5,0.7c1.9-1.3,2.3-3.9,0.8-5.6l-4.3-5.1
		l11.6-7.8C128.8,10.2,126.2,1.8,119.8,1.8z"/>
</g>
</svg>
