<?xml version="1.0" encoding="utf-8"?>
<!-- Generator: Adobe Illustrator 27.2.0, SVG Export Plug-In . SVG Version: 6.00 Build 0)  -->
<svg version="1.1" id="Слой_1" xmlns="http://www.w3.org/2000/svg" xmlns:xlink="http://www.w3.org/1999/xlink" x="0px" y="0px"
	 viewBox="0 0 142 34.2" style="enable-background:new 0 0 142 34.2;" xml:space="preserve">
<style type="text/css">
	.st0{fill:#FF4B37;}
</style>
<path d="M137.4,1.1c-1.8,0-3.4,1.2-3.9,2.9l-9.2,28.4h8.7l8.4-25.9C142.2,3.9,140.2,1.1,137.4,1.1z"/>
<path d="M10.4,1.7L0.5,32.4h8.7l7.4-23h17.7l-12.1,8.2c-1.7,1.2-2.3,3.6-1.2,5.4c1.2,1.8,3.6,2.3,5.3,1.1l15.1-10.2
	c5.4-3.7,2.8-12.1-3.7-12.1L10.4,1.7z"/>
<path d="M119.8,1.8H92.4l-9.9,30.7h8.7l7.4-23h17.7l-15.7,10.7l9.7,11.7c1.3,1.5,3.4,1.8,5,0.7c1.9-1.3,2.3-3.9,0.8-5.6l-4.3-5.1
	l11.6-7.8C128.8,10.2,126.2,1.8,119.8,1.8z"/>
<g>
	<g>
		<path class="st0" d="M48.2,1.8c2.5,0,4.9,0,7.4,0c0.5,0,1,0.4,1.5,0.6c0.4,0.1,0.8,0.3,1.2,0.3c1.2,0,2.4,0.1,3.5,0
			c0.6,0,1.1-0.2,1.6-0.5c0.6-0.3,1.2-0.5,1.9-0.5c1.7,0,3.4,0,5,0c1,0,1.9,0.1,2.7,0.6c0.2,0.1,0.5,0.1,0.7,0
			c1-0.7,2.1-0.7,3.3-0.6c0.6,0,1.2,0,1.8,0c0,0.3,0,0.5,0,0.7c0,4.5,0,8.9,0,13.4c0,0.8-0.1,1.6-0.6,2.3c-0.2,0.3-0.2,0.7,0,1
			c0.5,0.7,0.6,1.5,0.6,2.4c0,3.4,0,6.8,0,10.1c0,0.2,0,0.4,0,0.7c-0.2,0-0.4,0-0.7,0c-3.4,0-6.8,0-10.3,0c-0.8,0-1.6-0.1-2.3-0.6
			c-0.3-0.2-0.7-0.2-1,0c-0.7,0.5-1.5,0.6-2.3,0.5c-4.5,0-8.9,0-13.4,0c-0.2,0-0.5,0-0.8,0c0-0.3,0-0.5,0-0.7c0-2.1,0-4.2,0-6.2
			c0-0.6,0.3-1.2,0.5-1.7c0.3-0.6,0.4-1.1,0.4-1.8c0-0.7,0-1.4,0-2c0.1-1.3-0.1-2.5-0.8-3.5c-0.1-0.2-0.2-0.4-0.2-0.6
			c0-4.5,0-9.1,0-13.6C48.1,2.1,48.1,2,48.2,1.8z M53.4,8.9c0.1,0.2,0.2,0.3,0.2,0.4c3.2,3.7,6.4,7.5,9.6,11.2
			c0.7,0.8,1.4,1.4,2.4,1.7c0.4,0.1,0.5,0.4,0.6,0.8c0.1,0.6,0.3,1.2,0.6,1.7c0.5,0.8,1.2,1.5,1.8,2.2c0.2,0.2,0.5,0.3,0.7,0.3
			c0.9,0,1.8,0,2.7,0c0.4,0,0.5-0.1,0.6-0.5c0.2-1.6,0.4-3.2,0.7-4.7c0.2-0.8,0-1.4-0.8-1.8c-0.3-0.2-0.6-0.4-0.9-0.7
			c-2.7-2-5.4-4.1-8.1-6.1c-2.6-2-5.3-4-7.9-6c-0.1-0.1-0.4-0.1-0.5,0C54.5,7.8,53.9,8.3,53.4,8.9z M65.3,7.1
			c2.7,2.8,5.3,5.4,7.9,8.1c0.1,0,0.1-0.1,0.2-0.1c0-0.7,0-1.3,0-2c0-1.1,0.3-2.3-0.1-3.3c-0.4-1-1.5-1.6-2.3-2.4
			c-0.1-0.1-0.1-0.1-0.2-0.2c-0.1-0.1-0.2-0.1-0.3-0.1C68.8,7.1,67.1,7.1,65.3,7.1z M53.4,19c0,1.7,0,3.5,0,5.2
			c0,0.2,0.2,0.4,0.3,0.5c0.7,0.7,1.4,1.4,2.1,2.1c0.2,0.2,0.5,0.3,0.8,0.3c1.5,0,3,0,4.4,0c0.2,0,0.3,0,0.4,0
			C58.8,24.4,56.1,21.7,53.4,19z"/>
	</g>
</g>
</svg>
