<?xml version="1.0" encoding="utf-8"?>
<!-- Generator: Adobe Illustrator 27.2.0, SVG Export Plug-In . SVG Version: 6.00 Build 0)  -->
<svg version="1.1" id="Слой_1" xmlns="http://www.w3.org/2000/svg" xmlns:xlink="http://www.w3.org/1999/xlink" x="0px" y="0px"
	 viewBox="0 0 142 34.2" style="enable-background:new 0 0 142 34.2;" xml:space="preserve">
<style type="text/css">
	.st0{fill:#00C7B1;}
</style>
<path d="M136.9,1.1c-1.8,0-3.4,1.2-3.9,2.9l-9.2,28.4h8.7l8.4-25.9C141.7,3.9,139.7,1.1,136.9,1.1z"/>
<path d="M9.9,1.7L0,32.4h8.7l7.4-23h17.7l-12.1,8.2c-1.7,1.2-2.3,3.6-1.2,5.4c1.2,1.8,3.6,2.3,5.3,1.1L41,13.8
	c5.4-3.7,2.8-12.1-3.7-12.1L9.9,1.7z"/>
<path d="M119.3,1.8H91.9l-9.9,30.7h8.7l7.4-23h17.7l-15.7,10.7l9.7,11.7c1.3,1.5,3.4,1.8,5,0.7c1.9-1.3,2.3-3.9,0.8-5.6l-4.3-5.1
	l11.6-7.8C128.3,10.2,125.8,1.8,119.3,1.8z"/>
<g>
	<path class="st0" d="M80.3,16.1c0,0.7,0,1.3,0,2c0,0.1,0,0.2-0.1,0.3c-0.1,0.6-0.1,1.2-0.2,1.8c-0.6,3.3-2.2,6.2-4.6,8.7
		c-2.5,2.5-5.5,4.1-9,4.7c-0.6,0.1-1.2,0.2-1.9,0.3c-0.7,0-1.3,0-2,0c-0.4-0.1-0.9-0.1-1.3-0.2c-3.3-0.5-6.3-1.8-8.7-4
		c-4.4-4-6.3-9-5.6-14.9c0.5-3.9,2.2-7.3,5.2-10c4.2-3.8,9.1-5.2,14.6-4.2c3.3,0.6,6.2,2.2,8.6,4.6c2.5,2.5,4.1,5.5,4.7,9
		C80.2,14.9,80.2,15.5,80.3,16.1z M66.2,27.2c0,0,0,0.1,0,0.1c1.6-0.2,3.2-0.4,4.8-0.6c0.2,0,0.4-0.1,0.5-0.3
		c1.1-2.1,2.2-4.1,3.3-6.2c0.1-0.2,0.1-0.4,0-0.6c-0.9-1.4-1.7-2.8-2.5-4.3c-0.2-0.3-0.4-0.4-0.8-0.4c-2.2,0.2-4.5,0.5-6.7,0.7
		c-0.2,0-0.3,0.1-0.4,0.3c-0.8,1.6-1.7,3.2-2.5,4.8c-0.1,0.2-0.1,0.3,0,0.5c1,1.7,2.1,3.5,3,5.3C65.2,27.1,65.5,27.5,66.2,27.2z
		 M67.1,3.9C67.1,3.9,67.1,3.8,67.1,3.9c-1.4,0-2.7,0.2-4.1,0.3c-0.2,0-0.3,0.1-0.3,0.3c-0.6,1.9-1.2,3.7-1.9,5.6
		c-0.1,0.2,0,0.3,0.1,0.5c0.4,0.4,0.7,0.7,1,1.1c0.8,0.9,1.6,1.8,2.4,2.7c0.2,0.2,0.3,0.3,0.6,0.3c0.3-0.1,0.5-0.1,0.8-0.1
		c2-0.2,3.9-0.4,5.9-0.6c0.1,0,0.3-0.1,0.3-0.2c0.5-1.3,1-2.7,1.5-4c0-0.1,0-0.3-0.1-0.4c-1.3-1.5-2.7-3-4-4.6
		C68.7,4,68.1,3.6,67.1,3.9z M62.2,30.8c0,0,0.2-0.1,0.2-0.2c0.6-0.8,1.2-1.7,1.9-2.5c0.1-0.2,0.1-0.3,0-0.5
		c-1.1-1.8-2.1-3.7-3.2-5.5c-0.1-0.2-0.3-0.3-0.5-0.4c-1.8-0.4-3.6-0.7-5.4-1.1c-0.2,0-0.3,0-0.4,0.2c-0.9,1.4-1.7,2.7-2.6,4.1
		c-0.1,0.2-0.1,0.3,0,0.5c0.8,1.4,1.6,2.7,2.6,3.9c0.1,0.1,0.2,0.2,0.3,0.2c0.9,0.2,1.8,0.3,2.7,0.5C59.1,30.3,60.6,30.5,62.2,30.8z
		 M54.1,12.6c0.1,0,0.1-0.1,0.2-0.1c1.7-1.1,3.5-2,5.3-2.7c0.1-0.1,0.3-0.2,0.3-0.3C60.5,7.7,61,6,61.6,4.2c0.1-0.2,0-0.3-0.2-0.4
		c-0.9-0.5-1.8-0.9-2.7-1.4c-0.2-0.1-0.4-0.1-0.6,0c-1.5,0.6-3,1.3-4.3,2.4c-0.7,0.6-1.5,1.2-2,1.9c-0.8,1.1-1.1,2.3-1.6,3.5
		c-0.1,0.2,0,0.3,0.2,0.4c1.1,0.6,2.2,1.3,3.3,2C53.9,12.5,54,12.6,54.1,12.6z M49.7,11.3c-0.5,0.8-0.9,1.5-1.4,2.3
		c0,0.1,0,0.1-0.1,0.2c-0.6,2.6-0.5,5.1,0.2,7.6c0.1,0.4,0.2,0.8,0.4,1.1c0.6,0.8,1.5,1.3,2.3,1.9c0.1-0.1,0.1-0.2,0.2-0.3
		c0.8-1.3,1.7-2.7,2.5-4c0.2-0.2,0.2-0.4,0.1-0.7c-0.3-1.6-0.5-3.1-0.5-4.7c0-0.8-0.2-1.2-0.9-1.6C51.6,12.5,50.7,11.9,49.7,11.3z
		 M72.8,29.8c3.3-2.3,6.1-6.7,6.4-11.3c-1,0.5-2,1.1-3.1,1.7c-0.1,0.1-0.2,0.1-0.2,0.2c-1.2,2.2-2.4,4.4-3.6,6.6
		c0,0.1-0.1,0.2-0.1,0.3C72.4,28.2,72.6,29,72.8,29.8z M69.5,2.6c0,0.3-0.2,0.6,0.1,0.9c1.6,1.7,3.1,3.5,4.6,5.2
		c0.1,0.1,0.2,0.2,0.4,0.3c1,0.5,1.9,1,2.9,1.5c0.1,0,0.2,0.1,0.4,0.2C76.1,6.9,73.3,4.2,69.5,2.6z M64,32.7
		c-0.6-0.2-1.1-0.5-1.7-0.7c-0.2-0.1-0.3-0.1-0.5-0.2c-1.4-0.3-2.8-0.5-4.2-0.8c-0.5-0.1-1.1-0.2-1.6-0.3
		C58.5,32.2,61.2,32.9,64,32.7z"/>
</g>
</svg>
