<svg width="35" height="35" viewBox="0 0 35 35" fill="none" xmlns="http://www.w3.org/2000/svg">
<circle cx="17.5" cy="17.5" r="17.5" fill="#010101"/>
<path d="M22.3809 26C22.2902 25.9483 22.1311 25.8757 21.9925 25.7743C20.7187 24.8365 19.4491 23.8922 18.1774 22.9515C17.677 22.5813 17.4694 22.5864 16.9944 22.9809C16.3209 23.54 15.6516 24.1027 14.976 24.659C14.5122 25.0406 14.1969 24.9393 14.0167 24.35C13.5304 22.7646 13.0448 21.1785 12.5705 19.5896C12.4994 19.351 12.3896 19.2173 12.1511 19.1289C10.9293 18.679 9.71605 18.2033 8.49784 17.7426C8.24378 17.6463 8.00943 17.5364 8.00028 17.2166C7.99043 16.8731 8.24167 16.7581 8.50277 16.6553C14.0505 14.4699 19.5983 12.2844 25.146 10.099C25.3818 10.0063 25.6183 9.92365 25.8399 10.1206C26.0616 10.3182 26.0046 10.5633 25.9525 10.8184C24.9574 15.6995 23.9672 20.5813 22.9756 25.4639C22.9158 25.7571 22.7976 25.9863 22.3809 26ZM13.4207 19.1081C13.4228 19.144 13.4192 19.1814 13.4284 19.2152C13.7268 20.2967 14.0231 21.379 14.3327 22.457C14.3545 22.5339 14.4777 22.5813 14.5544 22.6417C14.6199 22.554 14.7268 22.4736 14.743 22.378C14.8247 21.895 14.8979 21.4092 14.9443 20.9213C14.99 20.439 15.2019 20.0682 15.546 19.7455C16.6601 18.7006 17.765 17.6456 18.8727 16.5942C19.8953 15.624 20.9185 14.656 21.9362 13.6808C22.0185 13.6025 22.053 13.4724 22.11 13.366C21.9847 13.3854 21.8426 13.3732 21.7384 13.4307C21.44 13.5953 21.1571 13.7893 20.8679 13.9711C18.5637 15.4207 16.2603 16.8716 13.9534 18.3176C13.655 18.5044 13.4425 18.7337 13.4214 19.1074L13.4207 19.1081Z" fill="#F5F5F5"/>
</svg>
